<svg id="Layer_1" data-name="Layer 1" xmlns="http://www.w3.org/2000/svg" viewBox="0 0 1065.9 1285"><defs><style>.cls-1{fill:#fff;}.cls-2{fill:#253d43;}.cls-3{fill:#f6ffff;}.cls-4{fill:#eec225;}.cls-5{font-size:11.61px;}.cls-25,.cls-5{font-family:Abel-Regular, Abel Regular;}.cls-6{letter-spacing:-0.01em;}.cls-7{letter-spacing:0em;}.cls-8{letter-spacing:-0.03em;}.cls-9{letter-spacing:0em;}.cls-10{letter-spacing:-0.01em;}.cls-11{letter-spacing:-0.01em;}.cls-12{letter-spacing:0em;}.cls-13{fill:#bccddb;}.cls-14{fill:#d6dede;}.cls-15{fill:#e6e7e8;}.cls-16{fill:#f6f7f7;}.cls-17,.cls-24{opacity:0.15;}.cls-18{fill:#f0b071;}.cls-19{fill:#606060;}.cls-20{fill:#fbc085;}.cls-21{fill:#d3ccd3;}.cls-22{fill:#d63a30;}.cls-23{fill:#1d2a33;}.cls-25{font-size:68.13px;fill:#8a2620;letter-spacing:0.2em;}.cls-26{fill:#4291cf;}.cls-27{fill:#78a9cf;}</style></defs><path class="cls-1" d="M1112,482l-9.56-4.65c14.54-29.92,21.61-48.93-2.79-60.8-15.33-7.46-28.46-.21-39,21.53l-9.56-4.65c13.08-26.91,32.49-36.54,53.25-26.45C1140,424.36,1124.48,456.32,1112,482Z" transform="translate(-158.61 -34.2)"/><rect class="cls-2" x="1022.03" y="453.47" width="92.55" height="60.64" transform="translate(160.53 -452.69) rotate(25.93)"/><path class="cls-1" d="M1075.23,481.41a5.19,5.19,0,0,0-9.33-4.54,5.12,5.12,0,0,0-.12,4.21l-5.11,10.5,5.9,2.87,5-10.24A5.17,5.17,0,0,0,1075.23,481.41Z" transform="translate(-158.61 -34.2)"/><path class="cls-3" d="M413.24,567v39.82a5.74,5.74,0,0,1-5.49,6H332.8a5.74,5.74,0,0,1-5.5-6V569.11l10.15-8.05h70.3A5.74,5.74,0,0,1,413.24,567Z" transform="translate(-158.61 -34.2)"/><rect class="cls-4" x="200.34" y="535.95" width="45.51" height="33.17" rx="3.75"/><path class="cls-3" d="M398.77,571.25H364.66a4.39,4.39,0,0,0-4.39,4.38v22.21a4.39,4.39,0,0,0,4.39,4.38h34.11a4.39,4.39,0,0,0,4.38-4.38V575.63A4.39,4.39,0,0,0,398.77,571.25Zm3.59,4.38v6.28H388.58v-2h-3.76v-4L389,572h9.74A3.6,3.6,0,0,1,402.36,575.63ZM388.3,591.25v.14l-4.15,1.67v4.74l3.76,3.64H375.56l3.19-3.44v-4.63l-4.28-2v-8.7h.88v-2h12.44v2h.7v8.55Zm-14.61,0H361.06V582.7h12.63ZM384,579.93h-5.12v-4.36L375.08,572h12.8L384,575.57Zm5.23,2.77h13.09v8.55H389.27ZM364.66,572h9.27l4.21,3.89v4h-3.57v2H361.06v-6.28A3.6,3.6,0,0,1,364.66,572Zm-3.6,25.81V592H374l4,1.83v3.82l-3.48,3.75h-9.83A3.6,3.6,0,0,1,361.06,597.84Zm37.71,3.6H389l-4.1-4v-3.88l3.87-1.55h13.55v5.8A3.6,3.6,0,0,1,398.77,601.44Z" transform="translate(-158.61 -34.2)"/><path class="cls-2" d="M949.06,264.26a10.57,10.57,0,0,0,2.32-7.68c-.73-6.79-8-11.14-8.83-11.61h0a3.23,3.23,0,0,0,.2,3.53c1.6,2.14,4.15,5.92,4.43,8.53.24,2.2-.85,4.41-3.24,6.56s-5.33,2-7.44,1.46c-5.83-1.36-12-6.86-14.36-12.8-4.43-11.14-13-14.2-13.37-14.32l-1.38,4,.69-2-.7,2c.29.1,7.15,2.64,10.83,11.89,2.87,7.23,10.16,13.68,17.33,15.35,4.37,1,8.36.16,11.23-2.43A18,18,0,0,0,949.06,264.26Z" transform="translate(-158.61 -34.2)"/><rect class="cls-2" x="899.66" y="229.08" width="11.49" height="16.19" rx="2.39" transform="translate(1481.94 -376.32) rotate(127.08)"/><path class="cls-3" d="M1036.87,268.92l-1.72.87h0a18.2,18.2,0,0,0-24.43-8.12l-.19.1h0a5.9,5.9,0,0,0-7.93-2.63l-2.75,1.38A45.21,45.21,0,1,0,919,301l-2.75,1.38a5.91,5.91,0,0,0-2.64,7.93h0l-1.62.82a18.18,18.18,0,0,0-8.11,24.42h0l-1.72.87A16.18,16.18,0,0,0,895,358.16h0a16.19,16.19,0,0,0,21.71,7.21l134.7-67.52a16.17,16.17,0,0,0,7.21-21.71h0A16.18,16.18,0,0,0,1036.87,268.92Z" transform="translate(-158.61 -34.2)"/><text class="cls-5" transform="translate(768.93 293.3) rotate(-26.62) scale(1.06 1)"><tspan class="cls-6">U</tspan><tspan x="7.44" y="0">se</tspan><tspan class="cls-7" x="17.86" y="0">r</tspan><tspan x="21.7" y="0">name</tspan><tspan class="cls-8"><tspan x="0" y="13.94">P</tspan><tspan class="cls-9" x="5.88" y="13.94">ass</tspan><tspan class="cls-10" x="20.67" y="13.94">w</tspan><tspan class="cls-9" x="29.1" y="13.94">o</tspan><tspan class="cls-11" x="35.48" y="13.94">r</tspan><tspan class="cls-12" x="39.16" y="13.94">d</tspan></tspan></text><rect class="cls-13" x="967.14" y="286.56" width="48.05" height="8.52" transform="translate(-183.85 440.8) rotate(-26.62)"/><rect class="cls-13" x="973.45" y="299.15" width="48.05" height="8.52" transform="translate(-188.82 444.96) rotate(-26.62)"/><text class="cls-5" transform="translate(822.76 283.69) rotate(-26.62) scale(1.06 1)">*******</text><path class="cls-14" d="M939,267.13c.87,1.74.79,3.56-.19,4.05s-2.48-.53-3.36-2.28-.79-3.56.19-4S938.08,265.38,939,267.13Z" transform="translate(-158.61 -34.2)"/><path class="cls-2" d="M942.75,248.5c1.6,2.15,4.15,5.92,4.43,8.53.24,2.2-.85,4.41-3.23,6.56a7.62,7.62,0,0,1-7.45,1.46c-2.1-.69-2,4.16,2.53,4.53a11.31,11.31,0,0,0,7.74-2.85,17.38,17.38,0,0,0,2.29-2.47,10.57,10.57,0,0,0,2.32-7.68c-.73-6.79-8-11.13-8.83-11.61A3.23,3.23,0,0,0,942.75,248.5Z" transform="translate(-158.61 -34.2)"/><path class="cls-2" d="M796.19,34.2c-1.81,16.62-7.78,89.59,22,127.06,32.76,41.2,85.8,76.88,86.33,77.24l1.77-2.66c-.52-.35-53.16-35.76-85.6-76.57C791.85,123,797.79,49.63,799.42,34.2Z" transform="translate(-158.61 -34.2)"/><path class="cls-15" d="M1121,697.58l-46.74,18.59c-3.87,1.54-8.16-.1-9.57-3.66l-20.28-51c-1.41-3.56.57-7.69,4.44-9.23l44.3-17.62,14.19,8.15,18.1,45.51C1126.9,691.91,1124.91,696,1121,697.58Z" transform="translate(-158.61 -34.2)"/><polygon class="cls-1" points="934.58 600.48 937.23 613.83 948.77 608.62 934.58 600.48"/><rect class="cls-2" x="1058.95" y="673.99" width="52.03" height="1.9" transform="translate(-331.23 414.53) rotate(-21.69)"/><rect class="cls-2" x="1061.42" y="680.18" width="52.03" height="1.9" transform="translate(-333.35 415.88) rotate(-21.69)"/><rect class="cls-2" x="1063.88" y="686.38" width="52.03" height="1.9" transform="translate(-335.46 417.23) rotate(-21.69)"/><rect class="cls-2" x="1066.35" y="692.57" width="52.03" height="1.9" transform="translate(-337.58 418.58) rotate(-21.69)"/><rect class="cls-16" x="257.9" y="336.62" width="160.26" height="103.55" transform="translate(-326.27 257.28) rotate(-38.12)"/><polygon class="cls-15" points="84.42 362.92 210.5 263.99 188.65 365.95 84.42 362.92"/><polygon class="cls-1" points="84.42 362.92 210.5 263.99 183.23 359.05 84.42 362.92"/><polygon class="cls-3" points="257.71 818.8 113.72 674.8 113.72 472.13 116.91 472.13 116.91 673.48 259.97 816.54 257.71 818.8"/><polygon class="cls-3" points="483.15 482.79 189.72 352.58 189.72 0 192.91 0 192.91 350.51 484.45 479.87 483.15 482.79"/><polygon class="cls-3" points="666.95 482.79 373.51 352.58 373.51 0 376.7 0 376.7 350.51 668.24 479.87 666.95 482.79"/><polygon class="cls-3" points="444.38 709.26 300.38 565.26 300.38 219.55 303.57 219.55 303.57 563.94 446.63 707.01 444.38 709.26"/><circle class="cls-3" cx="301.98" cy="218.34" r="6.65"/><circle class="cls-3" cx="301.98" cy="563.61" r="6.65"/><rect class="cls-3" x="231.79" y="459.85" width="3.19" height="345.05"/><circle class="cls-3" cx="392" cy="492.85" r="6.65" transform="translate(-254.06 59.95) rotate(-12.22)"/><circle class="cls-3" cx="233.39" cy="803.91" r="6.65"/><path class="cls-3" d="M280.57,506.33a6.65,6.65,0,1,1-6.64-6.65A6.64,6.64,0,0,1,280.57,506.33Z" transform="translate(-158.61 -34.2)"/><circle class="cls-3" cx="115.31" cy="675.62" r="6.65"/><path class="cls-3" d="M994.92,498.91A6.65,6.65,0,0,0,984.53,507L744.24,747.33l2.26,2.25L986.79,509.3a6.65,6.65,0,0,0,8.13-10.39Z" transform="translate(-158.61 -34.2)"/><path class="cls-3" d="M1039.5,593.72a6.64,6.64,0,0,0-10.38,8.14L788.83,842.14l2.26,2.26,240.28-240.29a6.64,6.64,0,0,0,8.13-10.39Z" transform="translate(-158.61 -34.2)"/><path class="cls-3" d="M969.66,392.63a6.64,6.64,0,0,0-10.39,8.13L719,641l2.26,2.26L961.53,403a6.64,6.64,0,0,0,8.13-10.38Z" transform="translate(-158.61 -34.2)"/><ellipse class="cls-17" cx="532.95" cy="1208.41" rx="532.95" ry="76.59"/><path class="cls-18" d="M342.37,944.92h1.57a12.34,12.34,0,0,1,12.34,12.34v48a11.51,11.51,0,0,1-11.51,11.51h-3.24A11.51,11.51,0,0,1,330,1005.24v-48A12.34,12.34,0,0,1,342.37,944.92Z" transform="translate(-796.29 1289.79) rotate(-90)"/><path class="cls-18" d="M346.08,918.68h1.57A12.34,12.34,0,0,1,360,931v54.84a12.06,12.06,0,0,1-12.06,12.06H345.8a12.06,12.06,0,0,1-12.06-12.06V931A12.34,12.34,0,0,1,346.08,918.68Z" transform="translate(-770.05 1270.97) rotate(-90)"/><path class="cls-18" d="M342.2,866.24h1.92a15.07,15.07,0,0,1,15.07,15.07v43.17a13.58,13.58,0,0,1-13.58,13.58h-4.89a13.58,13.58,0,0,1-13.58-13.58V881.3A15.07,15.07,0,0,1,342.2,866.24Z" transform="translate(-717.6 1211.1) rotate(-90)"/><path class="cls-18" d="M351,887.11h1.92A15.07,15.07,0,0,1,368,902.18v60.66a13.66,13.66,0,0,1-13.66,13.66h-4.73a13.66,13.66,0,0,1-13.66-13.66V902.18A15.07,15.07,0,0,1,351,887.11Z" transform="translate(-738.48 1249.55) rotate(-90)"/><path class="cls-19" d="M1061.15,963.6A77.16,77.16,0,0,0,1107.92,857c-30.78-65-60.56-141.27-115.54-180.47-70.41-50.2-121.93-72-169.78-72H604.94C515.68,604.46,392,676.83,392,766.1l51.31,323.33H958.18V855.6l103,108Z" transform="translate(-158.61 -34.2)"/><path class="cls-20" d="M872.36,452.67H854.81c-.92,0-1.83.05-2.74.11v-69.2a58.46,58.46,0,0,0-58.47-58.46H609.5A58.46,58.46,0,0,0,551,383.58V453a38.12,38.12,0,0,0-5.27-.37H528.21a17.82,17.82,0,0,0-17.82,17.82v38.39A56.78,56.78,0,0,0,551,563.3V576A150.52,150.52,0,0,0,701.55,726.5h0A150.52,150.52,0,0,0,852.07,576v-13.5a56.76,56.76,0,0,0,38.11-53.6V470.49A17.82,17.82,0,0,0,872.36,452.67Z" transform="translate(-158.61 -34.2)"/><path class="cls-2" d="M777.78,445.19c-30.31,0-56.58,8.53-69.51,21H693.21c-12.92-12.46-39.2-21-69.51-21-43.1,0-78,17.24-78,38.52s34.94,38.53,78,38.53c34.26,0,63.36-10.9,73.86-26.06h6.36c10.5,15.16,39.6,26.06,73.86,26.06,43.1,0,78.05-17.25,78.05-38.53S820.88,445.19,777.78,445.19Z" transform="translate(-158.61 -34.2)"/><path class="cls-1" d="M821.07,482.07S801.94,497,778.33,497s-42.73-14.89-42.73-14.89,19.13-14.89,42.73-14.89S821.07,482.07,821.07,482.07Z" transform="translate(-158.61 -34.2)"/><path class="cls-1" d="M665.62,482.07S646.48,497,622.88,497s-42.74-14.89-42.74-14.89,19.14-14.89,42.74-14.89S665.62,482.07,665.62,482.07Z" transform="translate(-158.61 -34.2)"/><rect class="cls-2" x="184.32" y="675.62" width="698.66" height="465.22" rx="13.5"/><polygon class="cls-21" points="981.49 1188.91 84.41 1188.91 181.75 1120.86 884.15 1120.86 981.49 1188.91"/><path class="cls-2" d="M84.41,1188.91H981.49a0,0,0,0,1,0,0v15.57a23.33,23.33,0,0,1-23.33,23.33H107.74a23.33,23.33,0,0,1-23.33-23.33v-15.57a0,0,0,0,1,0,0Z"/><rect class="cls-22" x="221.26" y="717.2" width="624.98" height="374.62" rx="7.04"/><circle class="cls-23" cx="692.36" cy="734.42" r="7.92" transform="translate(-475.14 670.48) rotate(-45)"/><polygon class="cls-2" points="632.79 1154.89 435.04 1154.89 413.58 1178.23 654.25 1178.23 632.79 1154.89"/><rect class="cls-2" x="184.32" y="675.62" width="698.66" height="465.22" rx="13.5"/><polygon class="cls-21" points="981.49 1188.91 84.41 1188.91 181.75 1120.86 884.15 1120.86 981.49 1188.91"/><path class="cls-2" d="M84.41,1188.91H981.49a0,0,0,0,1,0,0v15.57a23.33,23.33,0,0,1-23.33,23.33H107.74a23.33,23.33,0,0,1-23.33-23.33v-15.57a0,0,0,0,1,0,0Z"/><rect class="cls-22" x="221.26" y="717.2" width="624.98" height="374.62" rx="7.04"/><circle class="cls-23" cx="692.36" cy="734.42" r="7.92" transform="translate(-475.14 670.48) rotate(-45)"/><polygon class="cls-2" points="632.79 1154.89 435.04 1154.89 413.58 1178.23 654.25 1178.23 632.79 1154.89"/><g class="cls-24"><path d="M359.87,847c-4-2.25-9.07-.19-11,4l-11.6,24.55a80,80,0,0,0-6.38,26.24l25.55,2.76v-9.62a2.19,2.19,0,0,1,.2-.91l8.16-19.45C368.31,867.07,366.19,850.61,359.87,847Z" transform="translate(-158.61 -34.2)"/><path d="M358.09,944.92h1.57A12.34,12.34,0,0,1,372,957.27v48a11.51,11.51,0,0,1-11.51,11.51h-3.24a11.51,11.51,0,0,1-11.51-11.51v-48A12.34,12.34,0,0,1,358.09,944.92Z" transform="translate(-780.58 1305.5) rotate(-90)"/><path d="M361.79,918.68h1.57A12.34,12.34,0,0,1,375.71,931v54.84a12.06,12.06,0,0,1-12.06,12.06h-2.13a12.06,12.06,0,0,1-12.06-12.06V931a12.34,12.34,0,0,1,12.34-12.34Z" transform="translate(-754.33 1286.68) rotate(-90)"/><path d="M357.91,866.24h1.92A15.07,15.07,0,0,1,374.9,881.3v43.17a13.58,13.58,0,0,1-13.58,13.58h-4.89a13.58,13.58,0,0,1-13.58-13.58V881.3A15.07,15.07,0,0,1,357.91,866.24Z" transform="translate(-701.89 1226.82) rotate(-90)"/><path d="M366.7,887.11h1.92a15.07,15.07,0,0,1,15.07,15.07v60.66A13.66,13.66,0,0,1,370,976.5h-4.73a13.66,13.66,0,0,1-13.66-13.66V902.18A15.07,15.07,0,0,1,366.7,887.11Z" transform="translate(-722.76 1265.26) rotate(-90)"/></g><text class="cls-25" transform="translate(232.67 775.12) scale(1.06 1)">010000110101</text><text class="cls-25" transform="translate(232.67 1084.77) scale(1.06 1)">010000110101</text><text class="cls-25" transform="translate(232.67 961.38) scale(1.06 1)">010000110101</text><text class="cls-25" transform="translate(232.67 836.64) scale(1.06 1)">010100010100</text><text class="cls-25" transform="translate(232.67 902.04) scale(1.06 1)">000100100001</text><text class="cls-25" transform="translate(232.67 1018.36) scale(1.06 1)">000100100001</text><path class="cls-18" d="M630.11,912.33h9.39A12.67,12.67,0,0,1,652.16,925v49.93a0,0,0,0,1,0,0H630.11a0,0,0,0,1,0,0v-62.6A0,0,0,0,1,630.11,912.33Z"/><rect class="cls-18" x="803.33" y="985.03" width="23.35" height="23.35" transform="translate(286.08 -270.6) rotate(22.56)"/><rect class="cls-26" x="478.51" y="860.69" width="182.62" height="110.8" rx="16.67"/><rect class="cls-2" x="478.51" y="876.16" width="182.62" height="24.62"/><rect class="cls-1" x="501.17" y="946.38" width="64.98" height="11.63" rx="5.47"/><rect class="cls-1" x="501.17" y="933.26" width="31.58" height="10.73" rx="5.04"/><rect class="cls-1" x="534.46" y="933.26" width="32.49" height="10.73" rx="5.04"/><circle class="cls-27" cx="779.4" cy="967.34" r="24.88" transform="translate(-499.74 1469.44) rotate(-76.72)"/><path class="cls-18" d="M864.35,898l-68-26.61c-14.51-.91-10.77,23.9,6.43,32l19.13,7.89a8.94,8.94,0,0,1,5.49,7.41l3.91,40.36a10.81,10.81,0,0,1-2.24,7.71l-21.84,28a11.52,11.52,0,0,1-8,4.38l-36.4,3.52a10.71,10.71,0,0,0-9.63,11.69l.16,1.61a10.7,10.7,0,0,0,11.68,9.62l58.54-5.66a15.81,15.81,0,0,0,8.44-3.47L884.39,974a13.55,13.55,0,0,1,7.27-3l63.71-6.17h0l-6-61.66h0S868.1,899.53,864.35,898Z" transform="translate(-158.61 -34.2)"/><path class="cls-19" d="M881,897.79c-.82-5.55,2.45-9.76,7.8-11.13l193.43-49.59c7.9-3.18,17.14,1.32,21,10.22L1114.41,873c15.89,34.66,2.08,74.56-29.41,85.52a11.05,11.05,0,0,1-1.5.4L906.24,989.36a7.64,7.64,0,0,1-9-3.31C894.52,981.16,881,897.89,881,897.79Z" transform="translate(-158.61 -34.2)"/><path class="cls-17" d="M720.8,599.36a18,18,0,0,1-6.16-1.08,21.1,21.1,0,0,1-27.79,0,18.07,18.07,0,0,1-24.07-14.64A18.07,18.07,0,0,0,686.85,603a21.07,21.07,0,0,0,27.79,0,18.07,18.07,0,0,0,24.22-17,18.19,18.19,0,0,0-.15-2.35A18.07,18.07,0,0,1,720.8,599.36Z" transform="translate(-158.61 -34.2)"/><path class="cls-17" d="M869.81,467H853.32v6h10.94c6.33,0,11.46,5.93,11.46,13.24v8.62c0,21.31-5.26,38.78-22.4,40.53v6.17c23.19,0,30.15-21.72,30.15-48.51V482.79C883.47,474.07,877.36,467,869.81,467Z" transform="translate(-158.61 -34.2)"/><path class="cls-17" d="M534,469h16.49v6H539.51c-6.33,0-11.46,5.93-11.46,13.24v8.62c0,21.31,5.26,38.78,22.4,40.52v6.18c-23.19,0-30.15-21.72-30.15-48.51V484.83C520.3,476.11,526.42,469,534,469Z" transform="translate(-158.61 -34.2)"/><path class="cls-2" d="M551,573.14l3.63-133.29c0-48.52,46-72,77.37-75.12,139-13.91,111.33-28.53,162-28.53,17.42,0,54.86,17.34,54.86,48.9,0,0,1.78,188,2.68,188l17.15-120.52A254.44,254.44,0,0,0,870.55,427c0-112.09-20.67-204.75-193.27-178.27-156.07,23.94-142.56-10.27-142.56-10.27S484,284.2,533,427c2.81,8.2.46,17.21,1.33,25.59C534.29,452.62,549.35,572.92,551,573.14Z" transform="translate(-158.61 -34.2)"/><path class="cls-20" d="M349.23,847c-4-2.25-9.07-.19-11,4L326.6,875.53a80,80,0,0,0-6.38,26.24l25.55,2.76v-9.62A2.06,2.06,0,0,1,346,894l8.15-19.45C357.67,867.07,355.55,850.61,349.23,847Z" transform="translate(-158.61 -34.2)"/><path class="cls-20" d="M347.45,944.92H349a12.34,12.34,0,0,1,12.34,12.34v48a11.51,11.51,0,0,1-11.51,11.51h-3.24a11.51,11.51,0,0,1-11.51-11.51v-48A12.34,12.34,0,0,1,347.45,944.92Z" transform="translate(-791.21 1294.87) rotate(-90)"/><path class="cls-20" d="M351.16,918.68h1.57A12.34,12.34,0,0,1,365.07,931v54.84A12.06,12.06,0,0,1,353,997.92h-2.13a12.06,12.06,0,0,1-12.06-12.06V931a12.34,12.34,0,0,1,12.34-12.34Z" transform="translate(-764.97 1276.04) rotate(-90)"/><path class="cls-20" d="M347.27,866.24h1.92a15.07,15.07,0,0,1,15.07,15.07v43.17a13.58,13.58,0,0,1-13.58,13.58h-4.89a13.58,13.58,0,0,1-13.58-13.58V881.3A15.07,15.07,0,0,1,347.27,866.24Z" transform="translate(-712.53 1216.18) rotate(-90)"/><path class="cls-20" d="M356.06,887.11H358A15.07,15.07,0,0,1,373,902.18v60.66a13.66,13.66,0,0,1-13.66,13.66h-4.73A13.66,13.66,0,0,1,341,962.84V902.18A15.07,15.07,0,0,1,356.06,887.11Z" transform="translate(-733.4 1254.62) rotate(-90)"/></svg>