<svg id="Lag_1" data-name="Lag 1" xmlns="http://www.w3.org/2000/svg" viewBox="0 0 1171.19 710.91"><defs><style>.cls-1{fill:#ffeeef;}.cls-2{opacity:0.2;}.cls-3{fill:#d63a30;}.cls-34,.cls-4{fill:#253d43;}.cls-5{fill:#fff;}.cls-6{fill:#d65b53;}.cls-7{fill:#f6ffff;}.cls-8{fill:#eec225;}.cls-9{fill:#60a630;}.cls-10{fill:#d3ccd3;}.cls-11{fill:#132024;}.cls-12{fill:#ff473a;}.cls-13{fill:#c0b8c1;}.cls-14{fill:#d9d0d8;}.cls-15{fill:#f6f7f7;}.cls-16{fill:#e6e7e8;}.cls-17{opacity:0.5;}.cls-18{font-size:46.79px;fill:#8a2620;font-family:Abel-Regular, Abel Regular;letter-spacing:0.2em;}.cls-19{fill:#343031;}.cls-20{opacity:0.14;}.cls-21{fill:none;stroke:#fff;stroke-miterlimit:10;}.cls-22{fill:#8f6743;}.cls-23{fill:#fbc085;}.cls-24{fill:#d69c60;}.cls-25{fill:#2d1a13;}.cls-26{fill:#3d3839;}.cls-27{fill:#474242;}.cls-28{fill:#383a3d;}.cls-29{fill:#f9faf3;}.cls-30{opacity:0.15;}.cls-31{fill:#454151;}.cls-32{fill:#bdab2e;}.cls-33{fill:#fae43e;}.cls-34{opacity:0.8;font-size:26.28px;font-family:PlayfairDisplay-Regular, PlayfairDisplay Regular;}.cls-35{letter-spacing:-0.02em;}.cls-36{letter-spacing:0em;}.cls-37{letter-spacing:0em;}.cls-38{letter-spacing:0em;}.cls-39{fill:#606060;opacity:0.42;}</style></defs><rect class="cls-1" x="799.13" y="295.96" width="10.69" height="15.06" rx="2.39" transform="translate(217.66 -324.95) rotate(26.29)"/><path class="cls-1" d="M779.47,344.22a9.84,9.84,0,0,1-5.13-5.43c-2.22-5.94,2-12.59,2.51-13.33h0a3,3,0,0,1,1.29,3c-.43,2.45-1,6.65-.12,8.94.72,1.93,2.55,3.31,5.42,4.11a7.58,7.58,0,0,0,6.81-1.89c4.27-3.56,7.11-10.71,6.6-16.63-1-11.11,4.9-17.23,5.15-17.49l2.8,2.75-1.4-1.37,1.41,1.36c-.2.21-4.84,5.18-4,14.41.62,7.2-2.75,15.61-8,20-3.21,2.67-6.89,3.61-10.36,2.65A16.52,16.52,0,0,1,779.47,344.22Z"/><path class="cls-2" d="M804.81,308.26l-1.41-1.36-1.4-1.38a19.27,19.27,0,0,0-3.79,6.53l3.54,1.75A15.65,15.65,0,0,1,804.81,308.26Z"/><rect class="cls-1" x="799.13" y="295.96" width="10.69" height="15.06" rx="2.39" transform="translate(217.66 -324.95) rotate(26.29)"/><rect class="cls-1" x="799.13" y="295.96" width="10.69" height="15.06" rx="2.39" transform="translate(217.66 -324.95) rotate(26.29)"/><path class="cls-2" d="M804.81,308.26l-1.41-1.36-1.4-1.38a19.27,19.27,0,0,0-3.79,6.53l3.54,1.75A15.65,15.65,0,0,1,804.81,308.26Z"/><rect class="cls-3" x="791.32" y="144.86" width="84.75" height="51.42" rx="3.76" transform="translate(451.43 -589.71) rotate(51.74)"/><rect class="cls-4" x="801.39" y="156.92" width="84.75" height="11.43" transform="translate(449.03 -600.63) rotate(51.74)"/><rect class="cls-5" x="795.07" y="165.06" width="30.15" height="5.4" rx="1.97" transform="translate(440.26 -572.29) rotate(51.74)"/><rect class="cls-5" x="802.97" y="155.29" width="14.65" height="4.98" rx="1.82" transform="translate(432.48 -576.2) rotate(51.74)"/><rect class="cls-5" x="812.45" y="167.58" width="15.08" height="4.98" rx="1.82" transform="translate(445.82 -579.13) rotate(51.74)"/><circle class="cls-6" cx="842.13" cy="194.04" r="11.54" transform="translate(165.28 731.35) rotate(-51.42)"/><path class="cls-7" d="M802,79.65,783.91,123a6.76,6.76,0,0,1-8.68,4l-81.6-34a6.77,6.77,0,0,1-3.27-9l17.13-41.07,14.7-4.16,76.54,31.93A6.78,6.78,0,0,1,802,79.65Z"/><rect class="cls-8" x="731.88" y="67.22" width="53.69" height="39.13" rx="1.22" transform="translate(91.9 -285.43) rotate(22.64)"/><path class="cls-7" d="M784.32,77.67,747.18,62.18A5.17,5.17,0,0,0,740.42,65L730.34,89.14a5.17,5.17,0,0,0,2.78,6.76l37.14,15.49a5.17,5.17,0,0,0,6.76-2.78L787.1,84.44A5.18,5.18,0,0,0,784.32,77.67Zm1.93,6.41-2.85,6.84-14.26-6-.75-.32.9-2.15-4.09-1.7L767,76.42l6.35-2.31L784,78.53A4.25,4.25,0,0,1,786.25,84.08ZM763.84,94.7l-.06.16-5.27-.08L756.35,100l2.44,5.66L745.34,100l5-2.29,2.1-5-3.76-4.1,3.95-9.47.71.3.25.1.9-2.15L768.08,83l-.9,2.15.55.23.2.09-3.88,9.32Zm-15.91-6.64-13.75-5.73L738.07,73l13.75,5.73Zm16.41-7.62-5.57-2.32,2-4.75-2.58-5.6,13.93,5.81-5.79,2.11Zm4.45,5.38,14.25,6-3.89,9.32-14.25-6ZM746.83,63l10.09,4.21,2.82,6.14-1.82,4.37L754,76.14l-.89,2.15-1-.4-13.75-5.74,2.85-6.83A4.24,4.24,0,0,1,746.83,63ZM731.19,89.5l2.64-6.32,14.08,5.88,3.49,3.8L749.67,97l-5.49,2.5-10.71-4.46A4.25,4.25,0,0,1,731.19,89.5Zm39.42,21L760,106.12l-2.66-6.18,1.76-4.23,4.92.07,14.76,6.16-2.64,6.32A4.25,4.25,0,0,1,770.61,110.54Z"/><path class="cls-9" d="M672.86,82.22c-45.6.08-86.74-24.23-132.33-24.16Q545.82,29,551.13,0c45.59-.08,86.73,24.23,132.33,24.16Q678.17,53.19,672.86,82.22Z"/><path class="cls-5" d="M669.82,79.53c-43-1.09-82.26-23-125.28-24.08l9.63-52.76c43,1.1,82.25,23,125.28,24.08ZM546.33,54c41.92,1.54,80.31,22.44,122.24,24l9.09-49.8c-41.93-1.54-80.32-22.44-122.24-24Z"/><path class="cls-5" d="M635,47.26c-2,10.91-13.93,17.15-26.6,13.54S587,45.81,589,35s13.94-17.15,26.61-13.54S637,36.41,635,47.26Z"/><path class="cls-5" d="M656.75,51.58c-.51,2.77-3.61,4.64-6.9,4.06s-5.54-3.4-5-6.17,3.57-4.47,6.86-3.88S657.25,48.8,656.75,51.58Z"/><path class="cls-5" d="M579.9,32.9c-.5,2.78-3.57,4.46-6.86,3.87s-5.56-3.24-5.06-6,3.61-4.63,6.9-4S580.41,30.13,579.9,32.9Z"/><path class="cls-9" d="M606.74,62.89q.46-2.62,1-5.23a10,10,0,0,1-3.17-1.58,9.86,9.86,0,0,1-2.36-2.47,9.29,9.29,0,0,1-1.33-3.08,8,8,0,0,1-.09-3.35l.24-1.32,3.21.37L603.86,48a5.37,5.37,0,0,0,0,2.15,6.17,6.17,0,0,0,.83,2,6.65,6.65,0,0,0,1.48,1.61,6.4,6.4,0,0,0,2,1.06q1.21-6.73,2.45-13.46c-1-.67-1.95-1.36-2.88-2.08a12.48,12.48,0,0,1-2.39-2.43,8.9,8.9,0,0,1-1.45-3,8.52,8.52,0,0,1-.06-3.85l.11-.63a7.28,7.28,0,0,1,1.24-2.95,7.5,7.5,0,0,1,2.27-2.08,7.73,7.73,0,0,1,3-1,8.78,8.78,0,0,1,3.4.25l.78-4.26,2.47.69-.78,4.25a9.45,9.45,0,0,1,3.11,1.59,10.21,10.21,0,0,1,2.34,2.49,9.64,9.64,0,0,1,1.33,3.07,7.7,7.7,0,0,1,.09,3.31l-.15.86-3.21-.37c.08-.45.16-.9.25-1.35a5.41,5.41,0,0,0,0-2.12,6.16,6.16,0,0,0-.81-2,6.53,6.53,0,0,0-1.46-1.61,6.11,6.11,0,0,0-2-1.06l-2.34,12.84c1,.67,1.93,1.39,2.88,2.14a13.46,13.46,0,0,1,2.45,2.5,9,9,0,0,1,1.5,3.1,8.77,8.77,0,0,1,.08,3.91l-.18,1a7.36,7.36,0,0,1-1.25,3,7.18,7.18,0,0,1-2.3,2.09,7.87,7.87,0,0,1-3,1,8.62,8.62,0,0,1-3.43-.29l-.1,0q-.46,2.61-.95,5.23ZM607,33.11a5.86,5.86,0,0,0,.84,1.92,9.63,9.63,0,0,0,1.47,1.7c.58.53,1.21,1.05,1.89,1.57q1.1-5.94,2.18-11.89a5.52,5.52,0,0,0-2.17-.09,5.25,5.25,0,0,0-1.9.67,4.6,4.6,0,0,0-1.44,1.34,4.78,4.78,0,0,0-.78,1.9l-.11.62A5.52,5.52,0,0,0,607,33.11Zm10.27,15.21a6.15,6.15,0,0,0-.86-2,8.73,8.73,0,0,0-1.51-1.75A21,21,0,0,0,613,43q-1.14,6.27-2.29,12.56a5.59,5.59,0,0,0,2.21.18,5.24,5.24,0,0,0,2-.66,5,5,0,0,0,1.48-1.37,4.74,4.74,0,0,0,.82-2l.18-1A5.94,5.94,0,0,0,617.29,48.32Z"/><path class="cls-10" d="M86.76,567.47,10.15,680.75,0,681.5v18.83H.05a11.62,11.62,0,0,0,11.59,10.57h502c26.14,0,26.05-8.29,26.32-14.5l2.14-128.94Z"/><path class="cls-4" d="M107.26,233.11H525.49a20.5,20.5,0,0,1,20.5,20.5V549.92a0,0,0,0,1,0,0H86.76a0,0,0,0,1,0,0V253.61A20.5,20.5,0,0,1,107.26,233.11Z"/><path class="cls-5" d="M2,675.24,86.76,549.92H546l-5.71,132.33a11.62,11.62,0,0,1-11.61,11.12h-517A11.62,11.62,0,0,1,2,675.24Z"/><rect class="cls-3" x="97.05" y="254.78" width="438.68" height="281.73" rx="8.53"/><path class="cls-11" d="M312,249.19a4.39,4.39,0,1,1,4.39-4.39A4.39,4.39,0,0,1,312,249.19Z"/><path class="cls-12" d="M102.9,536,534.38,258.92a8.76,8.76,0,0,0-7.45-4.14H105.85a8.8,8.8,0,0,0-8.8,8.8V527.71A8.79,8.79,0,0,0,102.9,536Z"/><polygon class="cls-4" points="337.95 626.55 177.67 626.39 179.37 618.46 339.65 618.63 337.95 626.55"/><polygon class="cls-4" points="171.81 626.38 141.27 626.35 142.97 618.42 173.52 618.45 171.81 626.38"/><polygon class="cls-4" points="135.42 626.34 108.11 626.32 109.81 618.39 137.12 618.41 135.42 626.34"/><polygon class="cls-4" points="103.47 626.31 82.82 626.28 84.52 618.35 105.17 618.38 103.47 626.31"/><polygon class="cls-4" points="78.94 626.27 48.68 626.25 54.19 618.32 80.64 618.34 78.94 626.27"/><polygon class="cls-4" points="114.94 613.56 57.28 613.5 62.7 605.57 116.64 605.63 114.94 613.56"/><polygon class="cls-4" points="144.93 613.6 122.6 613.57 124.3 605.64 146.63 605.67 144.93 613.6"/><polygon class="cls-4" points="176.75 613.63 154.42 613.61 156.12 605.68 178.45 605.7 176.75 613.63"/><polygon class="cls-4" points="211.82 613.66 189.49 613.64 191.19 605.71 213.52 605.73 211.82 613.66"/><polygon class="cls-4" points="244.41 613.7 222.07 613.67 223.78 605.74 246.11 605.77 244.41 613.7"/><polygon class="cls-4" points="277.92 613.73 255.59 613.71 257.29 605.78 279.63 605.8 277.92 613.73"/><polygon class="cls-4" points="310.51 613.76 288.18 613.74 289.88 605.81 312.21 605.84 310.51 613.76"/><polygon class="cls-4" points="344.28 613.8 321.95 613.77 323.65 605.85 345.99 605.87 344.28 613.8"/><polygon class="cls-4" points="376.87 613.83 354.53 613.81 356.24 605.88 378.57 605.9 376.87 613.83"/><polygon class="cls-4" points="412.79 613.87 390.46 613.85 392.16 605.92 414.49 605.94 412.79 613.87"/><polygon class="cls-4" points="445.37 613.9 423.04 613.88 424.74 605.95 447.07 605.97 445.37 613.9"/><polygon class="cls-4" points="467.66 601.16 445.33 601.14 447.03 593.21 469.36 593.23 467.66 601.16"/><polygon class="cls-4" points="436.95 601.13 414.61 601.11 416.32 593.18 438.65 593.2 436.95 601.13"/><polygon class="cls-4" points="401.94 601.09 379.61 601.07 381.31 593.14 403.64 593.16 401.94 601.09"/><polygon class="cls-4" points="368.44 601.06 346.11 601.04 347.81 593.11 370.14 593.13 368.44 601.06"/><polygon class="cls-4" points="337.73 601.03 315.4 601 317.1 593.08 339.43 593.1 337.73 601.03"/><polygon class="cls-4" points="302.72 600.99 280.39 600.97 282.09 593.04 304.42 593.06 302.72 600.99"/><polygon class="cls-4" points="268.16 600.96 245.83 600.93 247.53 593 269.86 593.03 268.16 600.96"/><polygon class="cls-4" points="237.45 600.93 215.11 600.9 216.82 592.97 239.15 593 237.45 600.93"/><polygon class="cls-4" points="202.44 600.89 180.11 600.87 181.81 592.94 204.14 592.96 202.44 600.89"/><polygon class="cls-4" points="201.18 600.89 178.85 600.87 180.55 592.94 202.88 592.96 201.18 600.89"/><polygon class="cls-4" points="170.47 600.86 148.14 600.84 149.84 592.9 172.17 592.93 170.47 600.86"/><polygon class="cls-4" points="140.12 600.82 117.79 600.8 119.49 592.87 141.82 592.89 140.12 600.82"/><polygon class="cls-4" points="109.77 600.79 66.08 600.74 71.45 592.81 111.47 592.86 109.77 600.79"/><polygon class="cls-4" points="110.21 587.97 74.77 587.93 78.16 582.94 111.28 582.98 110.21 587.97"/><polygon class="cls-4" points="138.97 588.06 114.94 588.04 116 583.05 140.04 583.08 138.97 588.06"/><polygon class="cls-4" points="171.91 588.1 147.88 588.07 148.95 583.08 172.98 583.11 171.91 588.1"/><polygon class="cls-4" points="204.77 588.13 180.74 588.1 181.81 583.12 205.84 583.14 204.77 588.13"/><polygon class="cls-4" points="238.72 588.16 214.69 588.14 215.75 583.15 239.79 583.18 238.72 588.16"/><polygon class="cls-4" points="269.32 588.19 245.29 588.17 246.36 583.18 270.39 583.21 269.32 588.19"/><polygon class="cls-4" points="302.18 588.23 278.15 588.2 279.22 583.22 303.25 583.24 302.18 588.23"/><polygon class="cls-4" points="336.13 588.26 312.1 588.24 313.17 583.25 337.2 583.28 336.13 588.26"/><polygon class="cls-4" points="365.97 588.29 341.94 588.27 343.01 583.28 367.04 583.31 365.97 588.29"/><polygon class="cls-4" points="398.83 588.33 374.8 588.3 375.87 583.32 399.9 583.34 398.83 588.33"/><polygon class="cls-4" points="432.77 588.36 408.74 588.34 409.81 583.35 433.84 583.37 432.77 588.36"/><polygon class="cls-4" points="465.44 588.39 441.41 588.37 442.48 583.38 466.51 583.41 465.44 588.39"/><polygon class="cls-4" points="499.39 588.43 475.35 588.4 476.42 583.42 500.46 583.44 499.39 588.43"/><polygon class="cls-4" points="534.83 588.39 505.45 588.39 509.18 583.33 535.04 583.33 534.83 588.39"/><polygon class="cls-4" points="533.72 614.01 456.82 614.01 458.42 605.96 534.07 605.96 533.72 614.01"/><polygon class="cls-4" points="534.27 601.05 474.76 601.05 475.89 593.01 534.63 593.01 534.27 601.05"/><polygon class="cls-4" points="535.35 576.6 494.97 576.6 497.02 571.77 535.56 571.77 535.35 576.6"/><polygon class="cls-4" points="485.84 576.61 461.76 576.59 462.79 571.83 486.86 571.85 485.84 576.61"/><polygon class="cls-4" points="454.26 576.58 430.18 576.55 431.2 571.8 455.28 571.82 454.26 576.58"/><polygon class="cls-4" points="421.52 576.55 396.05 576.52 397.07 571.76 422.55 571.79 421.52 576.55"/><polygon class="cls-4" points="390.07 576.51 364.59 576.49 365.61 571.73 391.09 571.75 390.07 576.51"/><polygon class="cls-4" points="359.44 576.48 333.96 576.46 334.98 571.7 360.46 571.72 359.44 576.48"/><polygon class="cls-4" points="327.37 576.45 301.89 576.42 302.91 571.66 328.39 571.69 327.37 576.45"/><polygon class="cls-4" points="294.08 576.42 268.6 576.39 269.63 571.63 295.11 571.66 294.08 576.42"/><polygon class="cls-4" points="262.63 576.38 237.15 576.36 238.17 571.6 263.65 571.63 262.63 576.38"/><polygon class="cls-4" points="232 576.35 206.52 576.33 207.54 571.57 233.02 571.59 232 576.35"/><polygon class="cls-4" points="199.93 576.32 174.45 576.29 175.47 571.53 200.95 571.56 199.93 576.32"/><polygon class="cls-4" points="166.15 576.29 140.67 576.26 141.69 571.5 167.17 571.53 166.15 576.29"/><polygon class="cls-4" points="134.84 576.25 109.36 576.23 110.39 571.47 135.87 571.5 134.84 576.25"/><polygon class="cls-4" points="153.17 566.98 127.69 566.95 128.72 562.19 154.2 562.22 153.17 566.98"/><polygon class="cls-4" points="182.65 567.01 157.17 566.98 158.19 562.22 183.67 562.25 182.65 567.01"/><polygon class="cls-4" points="215.9 567.04 190.41 567.02 191.44 562.26 216.92 562.28 215.9 567.04"/><polygon class="cls-4" points="246.14 567.07 220.66 567.05 221.68 562.29 247.16 562.31 246.14 567.07"/><polygon class="cls-4" points="277.36 567.11 251.88 567.08 252.9 562.32 278.38 562.35 277.36 567.11"/><polygon class="cls-4" points="307.61 567.14 282.13 567.11 283.15 562.35 308.63 562.38 307.61 567.14"/><polygon class="cls-4" points="340.85 567.17 315.37 567.14 316.39 562.38 341.87 562.41 340.85 567.17"/><polygon class="cls-4" points="371.09 567.2 345.61 567.17 346.63 562.41 372.11 562.44 371.09 567.2"/><polygon class="cls-4" points="405.72 567.24 380.24 567.21 381.26 562.45 406.74 562.48 405.72 567.24"/><polygon class="cls-4" points="435.96 567.27 410.48 567.24 411.5 562.48 436.98 562.51 435.96 567.27"/><polygon class="cls-4" points="469.2 567.3 443.73 567.27 444.75 562.51 470.23 562.54 469.2 567.3"/><polygon class="cls-4" points="499.45 567.33 473.97 567.31 474.99 562.55 500.47 562.57 499.45 567.33"/><polygon class="cls-4" points="106.61 576.22 82.82 576.2 85.98 571.44 107.63 571.46 106.61 576.22"/><polygon class="cls-4" points="118.7 566.94 89.06 566.91 92.29 562.15 119.72 562.18 118.7 566.94"/><polygon class="cls-4" points="535.75 567.35 503.71 567.35 505.45 562.52 535.93 562.52 535.75 567.35"/><polygon class="cls-4" points="377.51 626.6 348.41 626.57 350.12 618.64 379.21 618.67 377.51 626.6"/><polygon class="cls-4" points="416.81 626.64 387.72 626.61 389.42 618.68 418.51 618.71 416.81 626.64"/><polygon class="cls-4" points="451.01 626.67 421.92 626.64 423.62 618.71 452.71 618.74 451.01 626.67"/><polygon class="cls-4" points="485.47 626.71 456.37 626.68 458.07 618.75 487.17 618.78 485.47 626.71"/><polygon class="cls-4" points="533.16 626.96 495.13 626.96 497.52 618.91 533.53 618.91 533.16 626.96"/><polygon class="cls-13" points="350.69 672.97 188.42 672.59 207.61 636.09 357.57 636.47 350.69 672.97"/><polygon class="cls-14" points="207.61 636.09 188.42 672.59 357.57 636.47 207.61 636.09"/><path class="cls-10" d="M1084.43,567.47,1161,680.75l10.15.75v18.83h0a11.62,11.62,0,0,1-11.59,10.57h-502c-26.14,0-26-8.29-26.32-14.5l-2.14-128.94Z"/><path class="cls-4" d="M625.2,233.11h459.23a0,0,0,0,1,0,0V529.42a20.5,20.5,0,0,1-20.5,20.5H645.7a20.5,20.5,0,0,1-20.5-20.5V233.11A0,0,0,0,1,625.2,233.11Z" transform="translate(1709.63 783.03) rotate(180)"/><path class="cls-5" d="M1169.18,675.24l-84.75-125.32H625.2l5.71,132.33a11.62,11.62,0,0,0,11.61,11.12h517A11.62,11.62,0,0,0,1169.18,675.24Z"/><rect class="cls-3" x="635.46" y="254.78" width="438.68" height="281.73" rx="8.53"/><path class="cls-11" d="M859.19,249.19a4.39,4.39,0,1,0-4.39-4.39A4.39,4.39,0,0,0,859.19,249.19Z"/><path class="cls-12" d="M641.31,536,1072.8,258.92a8.78,8.78,0,0,0-7.46-4.14H644.26a8.8,8.8,0,0,0-8.8,8.8V527.71A8.8,8.8,0,0,0,641.31,536Z"/><polygon class="cls-4" points="833.24 626.55 993.52 626.39 991.82 618.46 831.54 618.63 833.24 626.55"/><polygon class="cls-4" points="999.38 626.38 1029.92 626.35 1028.21 618.42 997.67 618.45 999.38 626.38"/><polygon class="cls-4" points="1035.77 626.34 1063.08 626.32 1061.38 618.39 1034.07 618.41 1035.77 626.34"/><polygon class="cls-4" points="1067.72 626.31 1088.37 626.28 1086.67 618.35 1066.02 618.38 1067.72 626.31"/><polygon class="cls-4" points="1092.25 626.27 1122.51 626.25 1117 618.32 1090.55 618.34 1092.25 626.27"/><polygon class="cls-4" points="1056.26 613.56 1113.91 613.5 1108.49 605.57 1054.55 605.63 1056.26 613.56"/><polygon class="cls-4" points="1026.26 613.6 1048.59 613.57 1046.89 605.64 1024.56 605.67 1026.26 613.6"/><polygon class="cls-4" points="994.44 613.63 1016.77 613.61 1015.07 605.68 992.74 605.7 994.44 613.63"/><polygon class="cls-4" points="959.37 613.66 981.7 613.64 980 605.71 957.67 605.73 959.37 613.66"/><polygon class="cls-4" points="926.78 613.7 949.12 613.67 947.41 605.74 925.08 605.77 926.78 613.7"/><polygon class="cls-4" points="893.26 613.73 915.6 613.71 913.89 605.78 891.56 605.8 893.26 613.73"/><polygon class="cls-4" points="860.68 613.76 883.01 613.74 881.31 605.81 858.98 605.84 860.68 613.76"/><polygon class="cls-4" points="826.91 613.8 849.24 613.77 847.54 605.85 825.2 605.87 826.91 613.8"/><polygon class="cls-4" points="794.32 613.83 816.65 613.81 814.95 605.88 792.62 605.9 794.32 613.83"/><polygon class="cls-4" points="758.4 613.87 780.73 613.85 779.03 605.92 756.7 605.94 758.4 613.87"/><polygon class="cls-4" points="725.82 613.9 748.15 613.88 746.45 605.95 724.12 605.97 725.82 613.9"/><polygon class="cls-4" points="703.53 601.16 725.86 601.14 724.16 593.21 701.83 593.23 703.53 601.16"/><polygon class="cls-4" points="734.24 601.13 756.58 601.11 754.87 593.18 732.54 593.2 734.24 601.13"/><polygon class="cls-4" points="769.25 601.09 791.58 601.07 789.88 593.14 767.55 593.16 769.25 601.09"/><polygon class="cls-4" points="802.75 601.06 825.08 601.04 823.38 593.11 801.05 593.13 802.75 601.06"/><polygon class="cls-4" points="833.46 601.03 855.79 601 854.09 593.08 831.76 593.1 833.46 601.03"/><polygon class="cls-4" points="868.47 600.99 890.8 600.97 889.1 593.04 866.77 593.06 868.47 600.99"/><polygon class="cls-4" points="903.03 600.96 925.36 600.93 923.66 593 901.33 593.03 903.03 600.96"/><polygon class="cls-4" points="933.74 600.93 956.08 600.9 954.37 592.97 932.04 593 933.74 600.93"/><polygon class="cls-4" points="968.75 600.89 991.08 600.87 989.38 592.94 967.05 592.96 968.75 600.89"/><polygon class="cls-4" points="970.01 600.89 992.34 600.87 990.64 592.94 968.3 592.96 970.01 600.89"/><polygon class="cls-4" points="1000.72 600.86 1023.05 600.84 1021.35 592.9 999.02 592.93 1000.72 600.86"/><polygon class="cls-4" points="1031.07 600.82 1053.4 600.8 1051.7 592.87 1029.37 592.89 1031.07 600.82"/><polygon class="cls-4" points="1061.42 600.79 1105.11 600.74 1099.74 592.81 1059.72 592.86 1061.42 600.79"/><polygon class="cls-4" points="1060.98 587.97 1096.42 587.93 1093.03 582.94 1059.91 582.98 1060.98 587.97"/><polygon class="cls-4" points="1032.22 588.06 1056.26 588.04 1055.18 583.05 1031.15 583.08 1032.22 588.06"/><polygon class="cls-4" points="999.28 588.1 1023.31 588.07 1022.24 583.08 998.21 583.11 999.28 588.1"/><polygon class="cls-4" points="966.42 588.13 990.45 588.1 989.38 583.12 965.35 583.14 966.42 588.13"/><polygon class="cls-4" points="932.47 588.16 956.5 588.14 955.43 583.15 931.4 583.18 932.47 588.16"/><polygon class="cls-4" points="901.87 588.19 925.9 588.17 924.83 583.18 900.79 583.21 901.87 588.19"/><polygon class="cls-4" points="869 588.23 893.04 588.2 891.97 583.22 867.93 583.24 869 588.23"/><polygon class="cls-4" points="835.06 588.26 859.09 588.24 858.02 583.25 833.99 583.28 835.06 588.26"/><polygon class="cls-4" points="805.22 588.29 829.25 588.27 828.18 583.28 804.15 583.31 805.22 588.29"/><polygon class="cls-4" points="772.36 588.33 796.39 588.3 795.32 583.32 771.29 583.34 772.36 588.33"/><polygon class="cls-4" points="738.42 588.36 762.45 588.34 761.38 583.35 737.35 583.37 738.42 588.36"/><polygon class="cls-4" points="705.75 588.39 729.78 588.37 728.71 583.38 704.68 583.41 705.75 588.39"/><polygon class="cls-4" points="671.8 588.43 695.84 588.4 694.76 583.42 670.73 583.44 671.8 588.43"/><polygon class="cls-4" points="636.36 588.39 665.74 588.39 662.01 583.33 636.15 583.33 636.36 588.39"/><polygon class="cls-4" points="637.47 614.01 714.37 614.01 712.77 605.96 637.12 605.96 637.47 614.01"/><polygon class="cls-4" points="636.92 601.05 696.43 601.05 695.29 593.01 636.56 593.01 636.92 601.05"/><polygon class="cls-4" points="635.84 576.6 676.22 576.6 674.17 571.77 635.63 571.77 635.84 576.6"/><polygon class="cls-4" points="685.35 576.61 709.42 576.59 708.4 571.83 684.33 571.85 685.35 576.61"/><polygon class="cls-4" points="716.93 576.58 741.01 576.55 739.99 571.8 715.91 571.82 716.93 576.58"/><polygon class="cls-4" points="749.66 576.55 775.14 576.52 774.12 571.76 748.64 571.79 749.66 576.55"/><polygon class="cls-4" points="781.12 576.51 806.6 576.49 805.58 571.73 780.1 571.75 781.12 576.51"/><polygon class="cls-4" points="811.75 576.48 837.23 576.46 836.21 571.7 810.73 571.72 811.75 576.48"/><polygon class="cls-4" points="843.82 576.45 869.3 576.42 868.28 571.66 842.8 571.69 843.82 576.45"/><polygon class="cls-4" points="877.11 576.42 902.59 576.39 901.56 571.63 876.08 571.66 877.11 576.42"/><polygon class="cls-4" points="908.56 576.38 934.04 576.36 933.02 571.6 907.54 571.63 908.56 576.38"/><polygon class="cls-4" points="939.19 576.35 964.67 576.33 963.65 571.57 938.17 571.59 939.19 576.35"/><polygon class="cls-4" points="971.26 576.32 996.74 576.29 995.72 571.53 970.24 571.56 971.26 576.32"/><polygon class="cls-4" points="1005.04 576.29 1030.52 576.26 1029.49 571.5 1004.01 571.53 1005.04 576.29"/><polygon class="cls-4" points="1036.35 576.25 1061.82 576.23 1060.8 571.47 1035.32 571.5 1036.35 576.25"/><polygon class="cls-4" points="1018.01 566.98 1043.49 566.95 1042.47 562.19 1016.99 562.22 1018.01 566.98"/><polygon class="cls-4" points="988.54 567.01 1014.02 566.98 1013 562.22 987.51 562.25 988.54 567.01"/><polygon class="cls-4" points="955.29 567.04 980.77 567.02 979.75 562.26 954.27 562.28 955.29 567.04"/><polygon class="cls-4" points="925.05 567.07 950.53 567.05 949.51 562.29 924.03 562.31 925.05 567.07"/><polygon class="cls-4" points="893.83 567.11 919.31 567.08 918.29 562.32 892.81 562.35 893.83 567.11"/><polygon class="cls-4" points="863.58 567.14 889.06 567.11 888.04 562.35 862.56 562.38 863.58 567.14"/><polygon class="cls-4" points="830.34 567.17 855.82 567.14 854.8 562.38 829.32 562.41 830.34 567.17"/><polygon class="cls-4" points="800.1 567.2 825.58 567.17 824.55 562.41 799.08 562.44 800.1 567.2"/><polygon class="cls-4" points="765.47 567.24 790.95 567.21 789.93 562.45 764.45 562.48 765.47 567.24"/><polygon class="cls-4" points="735.23 567.27 760.71 567.24 759.68 562.48 734.21 562.51 735.23 567.27"/><polygon class="cls-4" points="701.98 567.3 727.46 567.27 726.44 562.51 700.96 562.54 701.98 567.3"/><polygon class="cls-4" points="671.74 567.33 697.22 567.31 696.2 562.55 670.72 562.57 671.74 567.33"/><polygon class="cls-4" points="1064.58 576.22 1088.37 576.2 1085.21 571.44 1063.56 571.46 1064.58 576.22"/><polygon class="cls-4" points="1052.49 566.94 1082.13 566.91 1078.9 562.15 1051.47 562.18 1052.49 566.94"/><polygon class="cls-4" points="635.44 567.35 667.48 567.35 665.74 562.52 635.25 562.52 635.44 567.35"/><polygon class="cls-4" points="793.68 626.6 822.78 626.57 821.07 618.64 791.98 618.67 793.68 626.6"/><polygon class="cls-4" points="754.38 626.64 783.47 626.61 781.77 618.68 752.67 618.71 754.38 626.64"/><polygon class="cls-4" points="720.18 626.67 749.27 626.64 747.57 618.71 718.47 618.74 720.18 626.67"/><polygon class="cls-4" points="685.72 626.71 714.82 626.68 713.12 618.75 684.02 618.78 685.72 626.71"/><polygon class="cls-4" points="638.02 626.96 676.05 626.96 673.67 618.91 637.66 618.91 638.02 626.96"/><polygon class="cls-13" points="820.5 672.97 982.77 672.59 963.58 636.09 813.62 636.47 820.5 672.97"/><polygon class="cls-14" points="813.62 636.47 820.5 672.97 963.58 636.09 813.62 636.47"/><polygon class="cls-15" points="527.08 64.98 454.13 122.94 417.15 75.21 490.1 17.24 527.08 64.98"/><polygon class="cls-16" points="417.15 75.21 490.1 17.24 477.45 76.99 417.15 75.21"/><polygon class="cls-5" points="417.15 75.21 490.1 17.24 474.32 72.94 417.15 75.21"/><g class="cls-17"><text class="cls-18" transform="translate(108.1 302.6) scale(1.06 1)">010000110101</text><text class="cls-18" transform="translate(108.1 515.27) scale(1.06 1)">010000110101</text><text class="cls-18" transform="translate(108.1 430.52) scale(1.06 1)">010000110101</text><text class="cls-18" transform="translate(108.1 344.85) scale(1.06 1)">010100010100</text><text class="cls-18" transform="translate(108.1 389.76) scale(1.06 1)">000100100001</text><text class="cls-18" transform="translate(108.1 469.66) scale(1.06 1)">000100100001</text></g><g class="cls-17"><text class="cls-18" transform="translate(647.13 302.6) scale(1.06 1)">010000110101</text><text class="cls-18" transform="translate(647.13 515.27) scale(1.06 1)">010000110101</text><text class="cls-18" transform="translate(647.13 430.52) scale(1.06 1)">010000110101</text><text class="cls-18" transform="translate(647.13 344.85) scale(1.06 1)">010100010100</text><text class="cls-18" transform="translate(647.13 389.76) scale(1.06 1)">000100100001</text><text class="cls-18" transform="translate(647.13 469.66) scale(1.06 1)">000100100001</text></g><path class="cls-1" d="M779.47,344.22a9.84,9.84,0,0,1-5.13-5.43c-2.22-5.94,2-12.59,2.51-13.33h0a3,3,0,0,1,1.29,3c-.43,2.45-1,6.65-.12,8.94.72,1.93,2.55,3.31,5.42,4.11a7.58,7.58,0,0,0,6.81-1.89c4.27-3.56,7.11-10.71,6.6-16.63-1-11.11,4.9-17.23,5.15-17.49l2.8,2.75-1.4-1.37,1.41,1.36c-.2.21-4.84,5.18-4,14.41.62,7.2-2.75,15.61-8,20-3.21,2.67-6.89,3.61-10.36,2.65A16.52,16.52,0,0,1,779.47,344.22Z"/><rect class="cls-1" x="799.13" y="295.96" width="10.69" height="15.06" rx="2.39" transform="translate(217.66 -324.95) rotate(26.29)"/><path class="cls-19" d="M330.4,418.91l54.47-95.6c16.34-42.34,9.66-88.61-24.35-100.76-15.9-5.67-27.07-6.92-50-7.88,0,0-21.17,52.29-1.91,95.3,7.79,17.4.86,61.18,5.35,82C321.53,427.18,330.4,418.91,330.4,418.91Z"/><path class="cls-20" d="M322.6,424.24l54.46-95.6c16.35-42.34,9.66-88.61-24.34-100.76-15.9-5.67-26.82.9-49.77-.06,0,0-21.41,44.47-2.15,87.48,7.78,17.4.86,61.18,5.34,82C313.72,432.51,322.6,424.24,322.6,424.24Z"/><path class="cls-21" d="M440.53,375.8c12.66-24,34.38-12.56,47-36.57s-9.06-35.46,3.59-59.47,34.38-12.57,47-36.58-9.06-35.46,3.59-59.47,34.38-12.56,47-36.58-9.06-35.46,3.59-59.47"/><path class="cls-19" d="M431.62,402.91l-5.68-3L591.35,84.35a1.91,1.91,0,0,1,2.39-1.12h0a1.9,1.9,0,0,1,.51,2.63Z"/><path class="cls-22" d="M428.77,393.58h2a4.5,4.5,0,0,1,4.5,4.5v6.55a0,0,0,0,1,0,0h-11a0,0,0,0,1,0,0v-6.55a4.5,4.5,0,0,1,4.5-4.5Z" transform="translate(231.97 -153.05) rotate(27.41)"/><path class="cls-23" d="M406.91,428.17c3.08,2.66-2.06,8.21-4.28,12.05s-13.93,10.81-16.7,9.21S395,436.07,398,432.76,404.63,426.21,406.91,428.17Z"/><rect class="cls-24" x="288.81" y="344.3" width="43.03" height="72.96"/><path class="cls-23" d="M386.52,324.08,373,300.68V273a7.35,7.35,0,0,0-7.35-7.35h-73a14.24,14.24,0,0,0-14.24,14.24v29.36A63.76,63.76,0,0,0,342.16,373h6.64A24.21,24.21,0,0,0,373,348.77v-18h9.66A4.45,4.45,0,0,0,386.52,324.08Z"/><path class="cls-25" d="M305,345.34h-6.74c-23.05,0-41.68-31.53-41.68-61.3V272.5l52.84-5.29s-3.79,17.05-4.34,22.85C303.77,303.81,305,345.34,305,345.34Z"/><path class="cls-23" d="M302.36,299.1h2.2a4.84,4.84,0,0,1,4.84,4.84V320a4.84,4.84,0,0,1-4.84,4.84h-1.08A12.28,12.28,0,0,1,291.2,312.6v-2.34A11.16,11.16,0,0,1,302.36,299.1Z"/><circle class="cls-26" cx="450" cy="373.21" r="15.76"/><circle class="cls-27" cx="450" cy="373.21" r="10.38" transform="translate(-112.08 212.41) rotate(-23.71)"/><path class="cls-26" d="M445.22,403.63l7.78-30.8a1,1,0,0,0-.75-1.25l-3.2-.81a1,1,0,0,0-1.26.75l-8.29,32.86a3.24,3.24,0,0,0,2.34,3.93l11.21,2.83s.06,0,.06,0L454.4,406a0,0,0,0,0,0-.05Z"/><path class="cls-27" d="M456,409.35a3.9,3.9,0,1,1-2.59-4.76A3.82,3.82,0,0,1,456,409.35Z"/><path class="cls-26" d="M455.06,409c-.42,1.34-1.39,2.22-2.17,2s-1.08-1.52-.66-2.86,1.4-2.22,2.18-2S455.48,407.7,455.06,409Z"/><path class="cls-21" d="M592.4,87.66S647,81.24,746.86,171C824.26,240.53,802.64,302,802.64,302"/><ellipse class="cls-25" cx="373.01" cy="271.17" rx="7.76" ry="16.16"/><path class="cls-28" d="M316.31,290.73H300.63v7.71h7.21a36.24,36.24,0,0,0,8.74,8.69c15.87,11.71,35.44,9.78,35.44,9.78,10.72,0,21-9.27,21-20.53v-5.65Z"/><path class="cls-29" d="M347.85,310h-2.08c-5.45,0-7.65-2.49-8.14-4.59h0c-.69-2.92,2.48-5.72,5.48-5.72h6.82c3,0,6.22,2.8,5.53,5.72h0C355,307.46,353.3,310,347.85,310Z"/><path class="cls-28" d="M353.75,304.58a3.28,3.28,0,1,1-3.27-3.27A3.27,3.27,0,0,1,353.75,304.58Z"/><path class="cls-25" d="M378.67,266.74c0,4.52-5.66,14.56-5.66,14.56s-2.14,4.47-16,3.24c-13.3-1.18-31.8-5.41-45,3.94-34.8,24.57-55.41,10.7-55.41-15.15s27.33-46.8,61.05-46.8S378.67,240.89,378.67,266.74Z"/><path class="cls-30" d="M317.62,226.53c-23.3,0-43.55,10-53.84,24.72a93,93,0,0,0-7.14,24.47c.74,14.6,8.43,24.85,21.76,25.53v8A63.69,63.69,0,0,0,307,362.38c7.46-19.49,14.77-42.88,24.07-52.11,21.15-21,30.91-50.48,35.24-69.35C355.13,231.53,337.49,226.53,317.62,226.53Z"/><path class="cls-19" d="M335.42,381.88l-31.25-16.4a10,10,0,0,0-13.37,4.12c-34.86,7.29-61.17,75.27-61.17,159v7.78H348.8V442.24C348.8,429.37,352.51,399,335.42,381.88Z"/><path class="cls-22" d="M396.58,396.25h10.1a2.11,2.11,0,0,1,2.11,2.11V505.53a4.5,4.5,0,0,1-4.5,4.5H399a4.5,4.5,0,0,1-4.5-4.5V398.36a2.11,2.11,0,0,1,2.11-2.11Z" transform="translate(253.69 -134.02) rotate(27.41)"/><path class="cls-23" d="M398.47,471,384,445.84l27.84-15.69c9.11-4.81,9.2-1.89,13.38,6.07,3.09,5.9,1.88,18.28-6.14,22.92Z"/><path class="cls-31" d="M401.73,466.08l-11-20.42a5.62,5.62,0,0,0-7.5-2.36l-63.87,33.86V420.33a19.9,19.9,0,0,0-19.9-19.9h0a19.9,19.9,0,0,0-19.91,19.9V496.2A26.07,26.07,0,0,0,318.37,519l81.14-45.31A5.62,5.62,0,0,0,401.73,466.08Z"/><path class="cls-19" d="M262.53,404s-16.73-69.85-16.39-108.8c.58-64.66,41.44-97.4,114.38-72.69,0,0-5,54.52-38.42,87.72-13.53,13.42-22.84,56.76-34.52,74.57C267.83,415,262.53,404,262.53,404Z"/><polygon class="cls-32" points="863.08 325.98 863.08 314.94 762.04 314.94 762.04 325.98 762.04 366.52 762.04 476.63 972.59 476.63 972.59 325.98 863.08 325.98"/><rect class="cls-5" x="767.49" y="330.82" width="200.56" height="145.66"/><polygon class="cls-33" points="863.08 338.08 863.08 319.93 762.04 319.93 762.04 338.08 762.04 378.62 762.04 488.73 972.59 488.73 972.59 338.08 863.08 338.08"/><text class="cls-34" transform="translate(820.63 406.82)"><tspan class="cls-35">P<tspan class="cls-36" x="13.32" y="0">ersonal</tspan></tspan><tspan x="20.97" y="31.53">D</tspan><tspan class="cls-37" x="38.47" y="31.53">a</tspan><tspan class="cls-38" x="51.03" y="31.53">ta</tspan></text><path class="cls-39" d="M794.32,340.52c0,2.23-1.1,4-2.45,4s-2.45-1.81-2.45-4,1.1-4,2.45-4S794.32,338.29,794.32,340.52Z"/><path class="cls-1" d="M792.42,337.92a1,1,0,0,0-1.78-.57,14.65,14.65,0,0,1-2.23,2.34c-1.56,1.29-4,2.67-6.8,1.89s-4.71-2.17-5.43-4.1c-.85-2.29-.31-6.49.13-8.94a3,3,0,0,0-1.3-3c-.49.74-4.73,7.38-2.51,13.33a9.82,9.82,0,0,0,5.13,5.42,16.52,16.52,0,0,0,2.93,1.1c3.47,1,7.15,0,10.36-2.66.36-.3.7-.62,1-1a1.46,1.46,0,0,0,.42-.9c0-.58.06-1.16.06-1.75C792.44,338.7,792.43,338.31,792.42,337.92Z"/><path class="cls-16" d="M430.31,180,366.83,205.2c-5.25,2.09-11.07-.14-13-5L326.3,131c-1.92-4.84.78-10.46,6-12.54l60.16-23.93,19.27,11.07,24.58,61.8C438.26,172.25,435.56,177.87,430.31,180Z"/><polygon class="cls-5" points="392.49 94.54 396.08 112.67 411.76 105.61 392.49 94.54"/><rect class="cls-4" x="345.99" y="147.92" width="70.65" height="2.59" transform="translate(-28.15 151.48) rotate(-21.69)"/><rect class="cls-4" x="349.34" y="156.33" width="70.65" height="2.59" transform="translate(-31.02 153.31) rotate(-21.69)"/><rect class="cls-4" x="352.69" y="164.75" width="70.65" height="2.59" transform="matrix(0.93, -0.37, 0.37, 0.93, -33.89, 155.15)"/><rect class="cls-4" x="356.03" y="173.16" width="70.65" height="2.59" transform="translate(-36.76 156.98) rotate(-21.69)"/></svg>