<svg id="Lag_1" data-name="Lag 1" xmlns="http://www.w3.org/2000/svg" xmlns:xlink="http://www.w3.org/1999/xlink" viewBox="0 0 3140.08 1436.75"><defs><style>.cls-1{opacity:0.1;}.cls-2,.cls-21{fill:#fff;}.cls-3{fill:#f0f0f0;}.cls-4{fill:#07080a;}.cls-5{fill:#f0efef;}.cls-6{fill:url(#linear-gradient);}.cls-7{fill:#375a9c;}.cls-8{fill:#cccccb;}.cls-9{fill:#40beee;}.cls-10{fill:#f3786c;}.cls-11{fill:#ffc448;}.cls-12{fill:#1ea3a3;}.cls-13{fill:#f7f7f7;}.cls-14{fill:#dcdbdb;}.cls-15{fill:#ee1c50;}.cls-16{fill:#e6e5e5;}.cls-17{fill:#aeadad;}.cls-18{fill:#c2c1c0;}.cls-19{fill:#faca0d;}.cls-20{fill:#3f4040;}.cls-21{opacity:0.2;}.cls-22{fill:#75401c;}.cls-23{fill:#2e2e2d;}.cls-24{fill:#88491f;}.cls-25{fill:#3e3e3d;}.cls-26{fill:#fed6aa;}.cls-27{fill:#414042;}.cls-28{fill:#231f20;}.cls-29{fill:#0b0b0b;}.cls-30{fill:#fedebb;}.cls-31{fill:#404040;}.cls-32{fill:#4a4a4a;}.cls-33{fill:#83421d;}.cls-34{fill:#f5f5f5;}.cls-35{fill:#1e1e1e;}.cls-36{fill:#1c3665;}.cls-37{fill:#f4e6cf;}.cls-38{fill:#e6c9aa;}.cls-39{fill:#8a5021;}</style><linearGradient id="linear-gradient" x1="1506.99" y1="1128.27" x2="1505.12" y2="1611.01" gradientUnits="userSpaceOnUse"><stop offset="0" stop-color="#fff"/><stop offset="1"/></linearGradient></defs><ellipse class="cls-1" cx="1570.04" cy="1376.62" rx="1570.04" ry="60.14"/><rect class="cls-2" y="1307" width="3008.77" height="68.59"/><path class="cls-2" d="M3008.77,1375.58c0,3.22-10.42,6.36-30.26,9.4-139.71,21.36-746.61,37.44-1474.13,37.44-636.52,0-1180.72-12.31-1400.45-29.7C36.84,1387.42,0,1381.63,0,1375.58s37.07-11.87,104.55-17.18c220.14-17.37,763.91-29.66,1399.83-29.66,726.92,0,1333.42,16,1473.78,37.39C2998.23,1369.19,3008.77,1372.34,3008.77,1375.58Z"/><path class="cls-3" d="M3008.77,1307c0,3.22-10.42,6.35-30.26,9.39q-10,1.53-23.22,3-14.76,1.68-33.32,3.29c-19.9,1.75-43,3.43-69.08,5.07-24.17,1.52-50.9,3-80,4.41-267.23,13-735.49,21.65-1268.49,21.65-487.24,0-920.38-7.22-1195.3-18.4q-42.61-1.74-80-3.6c-24.86-1.22-47.93-2.5-69.08-3.8q-17.57-1.1-33.34-2.21-11.87-.84-22.7-1.69C36.84,1318.83,0,1313.05,0,1307s37.08-11.87,104.55-17.19q10.76-.86,22.53-1.68,15.81-1.12,33.41-2.2,31.8-2,69.22-3.82t80.17-3.59c275-11.16,707.74-18.36,1194.5-18.36,532.52,0,1000.42,8.61,1267.77,21.6,29.17,1.42,55.95,2.89,80.18,4.41,26.14,1.63,49.29,3.33,69.24,5.07q18.6,1.62,33.41,3.29,13.14,1.48,23.18,3C2998.23,1300.6,3008.77,1303.76,3008.77,1307Z"/><rect class="cls-4" x="819.22" y="320.81" width="1368.93" height="940.63" rx="48.89"/><rect class="cls-5" x="662.21" y="1239.4" width="1688.46" height="30.28"/><path class="cls-6" d="M1872.12,1269.7H662.22s40.37,27.41,117,27.41H2233.7c76.6,0,117-27.41,117-27.41Z"/><rect class="cls-7" x="867.93" y="374.21" width="1279.14" height="806.25" rx="6.7"/><path class="cls-8" d="M1648,1239.4a29.54,29.54,0,0,1-29,24.16H1397.83a29.62,29.62,0,0,1-29-24.16Z"/><rect class="cls-2" x="945.19" y="16.03" width="1122.5" height="1102.7" rx="16.03"/><path class="cls-9" d="M2067.69,16V84.81H945.19V16a16,16,0,0,1,16-16H2051.65A16,16,0,0,1,2067.69,16Z"/><rect class="cls-2" x="998.17" y="26.19" width="800.89" height="32.43" rx="11.76"/><circle class="cls-10" cx="1870.08" cy="42.4" r="13.73"/><circle class="cls-11" cx="1914.96" cy="42.4" r="13.73"/><circle class="cls-12" cx="1959.85" cy="42.4" r="13.73"/><rect class="cls-13" x="1175.77" y="218.83" width="661.34" height="753.72" rx="32.45"/><path class="cls-14" d="M1804.65,974.38H1208.22a34.33,34.33,0,0,1-34.29-34.28V251.29A34.33,34.33,0,0,1,1208.22,217h596.43a34.33,34.33,0,0,1,34.29,34.29V940.1A34.32,34.32,0,0,1,1804.65,974.38ZM1208.22,220.67a30.65,30.65,0,0,0-30.62,30.62V940.1a30.66,30.66,0,0,0,30.62,30.62h596.43a30.66,30.66,0,0,0,30.63-30.62V251.29a30.66,30.66,0,0,0-30.63-30.62Z"/><path class="cls-15" d="M1617.27,378.9a110.69,110.69,0,0,1-46.83,90.49c-5.34-40.05-32-83.49-64-83.49s-58.67,43.44-64,83.49a110.83,110.83,0,1,1,174.83-90.49Z"/><circle class="cls-2" cx="1506.44" cy="347.14" r="34.42"/><path class="cls-2" d="M1570.44,469.39a110.68,110.68,0,0,1-128,0c5.33-40.05,32-83.49,64-83.49S1565.1,429.34,1570.44,469.39Z"/><path class="cls-15" d="M1506.44,500.57a121.67,121.67,0,1,1,86-35.64A120.87,120.87,0,0,1,1506.44,500.57Zm0-239.67a118,118,0,1,0,118,118A118.13,118.13,0,0,0,1506.44,260.9Z"/><rect class="cls-16" x="1246.06" y="666.56" width="525.24" height="86.12" rx="9.29"/><rect class="cls-16" x="1246.06" y="562.78" width="525.24" height="86.12" rx="9.29"/><rect class="cls-15" x="1246.06" y="783.62" width="525.24" height="86.12" rx="8.05"/><path class="cls-2" d="M1436.35,810.59h7.87V838.8h13.85v6.6h-21.72Z"/><path class="cls-2" d="M1492.61,827.65c0,11.42-6.89,18.32-17.07,18.32s-16.39-7.81-16.39-17.74c0-10.4,6.69-18.21,16.94-18.21C1486.77,810,1492.61,818,1492.61,827.65Zm-25.14.43c0,6.82,3.21,11.63,8.46,11.63s8.36-5,8.36-11.8c0-6.27-3-11.63-8.38-11.63S1467.47,821.31,1467.47,828.08Z"/><path class="cls-2" d="M1526.87,843.79a38.7,38.7,0,0,1-11.62,2c-6.37,0-11-1.59-14.15-4.67a17.08,17.08,0,0,1-4.93-12.67c0-11.58,8.48-18.17,19.88-18.17a24.33,24.33,0,0,1,9.67,1.68l-1.64,6.3a19.27,19.27,0,0,0-8.1-1.48c-6.56,0-11.55,3.69-11.55,11.26,0,7.19,4.54,11.4,11,11.4a11.42,11.42,0,0,0,3.85-.49V831.6h-5.38v-6.14h13Z"/><path class="cls-2" d="M1540.89,810.59V845.4H1533V810.59Z"/><path class="cls-2" d="M1547.74,845.4V810.59h9.17l7.22,12.77a99,99,0,0,1,5.69,11.94l.14,0a136.11,136.11,0,0,1-.64-14.54V810.59h7.23V845.4h-8.25L1560.84,832a128.61,128.61,0,0,1-6-12.29h-.17c.24,4.62.34,9.54.34,15.23V845.4Z"/><path class="cls-17" d="M1287.21,612c0,1.63,0,3,.13,4.24h-2.49l-.15-2.53h-.08a5.77,5.77,0,0,1-5.12,2.88c-2.42,0-5.33-1.36-5.33-6.78v-9h2.8v8.55c0,2.94.92,5,3.46,5a4.11,4.11,0,0,0,3.73-2.58,4.53,4.53,0,0,0,.25-1.45v-9.47h2.8Z"/><path class="cls-17" d="M1291.51,613.34a7.61,7.61,0,0,0,3.72,1.11c2.06,0,3-1,3-2.31s-.82-2.06-2.87-2.83c-2.8-1-4.12-2.53-4.12-4.39,0-2.49,2-4.54,5.36-4.54a7.45,7.45,0,0,1,3.79,1l-.7,2a6.14,6.14,0,0,0-3.18-.91c-1.66,0-2.56,1-2.56,2.13s.91,1.85,2.94,2.63c2.67,1,4,2.34,4.06,4.65,0,2.75-2.13,4.67-5.79,4.67a8.85,8.85,0,0,1-4.35-1.08Z"/><path class="cls-17" d="M1306.15,609c0,3.8,2.47,5.37,5.29,5.37a10.44,10.44,0,0,0,4.29-.79l.49,2a12.42,12.42,0,0,1-5.16,1c-4.75,0-7.61-3.17-7.61-7.81s2.76-8.36,7.28-8.36c5,0,6.37,4.43,6.37,7.28a7,7,0,0,1-.1,1.32Zm8.24-2c0-1.78-.73-4.56-3.89-4.56-2.87,0-4.09,2.6-4.32,4.56Z"/><path class="cls-17" d="M1320.6,605.56c0-1.83,0-3.39-.13-4.82h2.47l.11,3h.1a4.7,4.7,0,0,1,4.3-3.39,3.25,3.25,0,0,1,.79.08v2.65a4.53,4.53,0,0,0-1-.08c-2,0-3.38,1.49-3.77,3.6a7.71,7.71,0,0,0-.11,1.31v8.27h-2.8Z"/><path class="cls-17" d="M1331.2,604.92c0-1.62-.06-2.9-.13-4.18h2.49l.15,2.54h.08a5.72,5.72,0,0,1,5.12-2.9c2.12,0,5.45,1.28,5.45,6.6v9.23h-2.8v-8.92c0-2.5-.94-4.6-3.58-4.6a4,4,0,0,0-3.79,2.89,4.26,4.26,0,0,0-.19,1.31v9.32h-2.8Z"/><path class="cls-17" d="M1357.54,616.21l-.25-2h-.09a5.76,5.76,0,0,1-4.73,2.3,4.42,4.42,0,0,1-4.73-4.44c0-3.75,3.32-5.8,9.3-5.76V606c0-1.26-.35-3.59-3.52-3.57a7.54,7.54,0,0,0-4,1.15l-.64-1.87a9.69,9.69,0,0,1,5.11-1.36c4.73,0,5.88,3.24,5.88,6.34v5.79a24.63,24.63,0,0,0,.23,3.7Zm-.44-7.9c-3-.07-6.53.48-6.53,3.47a2.48,2.48,0,0,0,2.62,2.7,3.87,3.87,0,0,0,3.77-2.59,2.89,2.89,0,0,0,.14-.89Z"/><path class="cls-17" d="M1364.38,604.92c0-1.62-.05-2.9-.13-4.18h2.45l.15,2.49h.07a5.36,5.36,0,0,1,4.89-2.85,4.55,4.55,0,0,1,4.36,3.11h.06a6.41,6.41,0,0,1,1.75-2,5.29,5.29,0,0,1,3.4-1.09c2.07,0,5.11,1.34,5.11,6.72v9.11h-2.75v-8.75c0-3-1.1-4.77-3.35-4.77a3.67,3.67,0,0,0-3.35,2.53,4.79,4.79,0,0,0-.23,1.41v9.58h-2.75v-9.29c0-2.46-1.09-4.23-3.21-4.23a3.89,3.89,0,0,0-3.51,2.81,4.39,4.39,0,0,0-.21,1.38v9.33h-2.75Z"/><path class="cls-17" d="M1392.64,609c.06,3.8,2.47,5.37,5.3,5.37a10.42,10.42,0,0,0,4.28-.79l.49,2a12.42,12.42,0,0,1-5.16,1c-4.75,0-7.61-3.17-7.61-7.81s2.76-8.36,7.28-8.36c5,0,6.37,4.43,6.37,7.28a7,7,0,0,1-.1,1.32Zm8.24-2c0-1.78-.73-4.56-3.88-4.56-2.88,0-4.1,2.6-4.33,4.56Z"/><path class="cls-17" d="M1274.27,705.17c0-2-.06-3.58-.13-5h2.51l.16,2.63h.06a6.06,6.06,0,0,1,5.49-3c3.75,0,6.57,3.16,6.57,7.86,0,5.57-3.41,8.32-7,8.32a5.4,5.4,0,0,1-4.77-2.44h-.07v8.42h-2.79Zm2.79,4.13a4.77,4.77,0,0,0,.13,1.15,4.32,4.32,0,0,0,4.2,3.3c3,0,4.71-2.45,4.71-6,0-3.08-1.62-5.74-4.6-5.74a4.49,4.49,0,0,0-4.26,3.47,5.1,5.1,0,0,0-.18,1.15Z"/><path class="cls-17" d="M1301.06,715.6l-.25-2h-.08A5.78,5.78,0,0,1,1296,716a4.41,4.41,0,0,1-4.72-4.44c0-3.75,3.32-5.8,9.3-5.76v-.33c0-1.26-.36-3.59-3.53-3.57a7.57,7.57,0,0,0-4,1.15l-.64-1.87a9.71,9.71,0,0,1,5.11-1.36c4.73,0,5.88,3.24,5.88,6.34v5.79a23.3,23.3,0,0,0,.24,3.7Zm-.44-7.9c-3-.07-6.53.48-6.53,3.47a2.48,2.48,0,0,0,2.63,2.7,3.89,3.89,0,0,0,3.77-2.59,3.19,3.19,0,0,0,.13-.89Z"/><path class="cls-17" d="M1307.5,712.73a7.68,7.68,0,0,0,3.73,1.11c2.06,0,3-1,3-2.31s-.82-2.06-2.87-2.83c-2.8-1-4.12-2.53-4.12-4.39,0-2.49,2-4.54,5.36-4.54a7.45,7.45,0,0,1,3.79,1l-.7,2a6.14,6.14,0,0,0-3.18-.91c-1.66,0-2.56,1-2.56,2.13s.91,1.85,2.94,2.63c2.66,1,4,2.34,4.06,4.65,0,2.75-2.13,4.67-5.79,4.67a8.85,8.85,0,0,1-4.35-1.08Z"/><path class="cls-17" d="M1320.17,712.73a7.68,7.68,0,0,0,3.73,1.11c2.06,0,3-1,3-2.31s-.82-2.06-2.87-2.83c-2.8-1-4.12-2.53-4.12-4.39,0-2.49,2-4.54,5.36-4.54a7.45,7.45,0,0,1,3.79,1l-.7,2a6.14,6.14,0,0,0-3.18-.91c-1.66,0-2.56,1-2.56,2.13s.91,1.85,2.94,2.63c2.67,1,4,2.34,4.06,4.65,0,2.75-2.13,4.67-5.79,4.67a8.85,8.85,0,0,1-4.35-1.08Z"/><path class="cls-17" d="M1334.34,700.13l2.08,7.85c.45,1.73.84,3.34,1.15,4.94h.08c.35-1.56.86-3.24,1.39-4.92l2.53-7.87h2.36l2.41,7.74c.55,1.83,1,3.47,1.37,5h.07c.28-1.57.7-3.2,1.2-5l2.21-7.76H1354l-5,15.47h-2.56l-2.35-7.38a48,48,0,0,1-1.37-5.11h-.07a46.5,46.5,0,0,1-1.41,5.13l-2.49,7.36h-2.57l-4.67-15.47Z"/><path class="cls-17" d="M1370.48,707.71c0,5.73-4,8.24-7.69,8.24-4.2,0-7.44-3.06-7.44-8,0-5.18,3.4-8.21,7.68-8.21C1367.48,699.77,1370.48,703,1370.48,707.71Zm-12.27.18c0,3.4,2,6,4.69,6s4.72-2.52,4.72-6c0-2.62-1.32-5.93-4.67-5.93S1358.21,705,1358.21,707.89Z"/><path class="cls-17" d="M1374,705c0-1.83,0-3.39-.13-4.82h2.47l.1,3h.1a4.72,4.72,0,0,1,4.31-3.39,3.12,3.12,0,0,1,.78.08v2.65a4.43,4.43,0,0,0-1-.08c-2,0-3.39,1.49-3.77,3.6a7.71,7.71,0,0,0-.11,1.31v8.27H1374Z"/><path class="cls-17" d="M1397.54,692.88v18.73c0,1.37,0,2.92.13,4h-2.5l-.15-2.68H1395a5.66,5.66,0,0,1-5.25,3c-3.75,0-6.64-3.17-6.64-7.86,0-5.17,3.18-8.32,7-8.32a5.17,5.17,0,0,1,4.67,2.35h.06v-9.24Zm-2.8,13.54a6.16,6.16,0,0,0-.11-1.2,4.16,4.16,0,0,0-4.08-3.24c-2.91,0-4.66,2.56-4.66,6,0,3.14,1.57,5.75,4.6,5.75a4.25,4.25,0,0,0,4.12-3.38,4.63,4.63,0,0,0,.13-1.21Z"/><path class="cls-18" d="M1936.53,465.94V432a105.58,105.58,0,0,0-211.16,0v56.19a105.47,105.47,0,0,0,180.16,74.58,106.85,106.85,0,0,0,17.21-22.48h-27.83a82.5,82.5,0,0,1-146.48-52.1V432a82.52,82.52,0,1,1,165,0v33.95Z"/><rect class="cls-19" x="1685.28" y="490.14" width="291.34" height="240.07" rx="24.38"/><circle class="cls-20" cx="1830.95" cy="592.76" r="32.53" transform="translate(117.13 1468.29) rotate(-45)"/><polygon class="cls-20" points="1843.49 666.6 1818.42 666.6 1827.85 583.98 1834.05 583.98 1843.49 666.6"/><path class="cls-21" d="M1716.18,587.46h0a15.26,15.26,0,0,1,15.21,15.21v82.82a15.25,15.25,0,0,1-15.21,15.21h0A15.26,15.26,0,0,1,1701,685.49V602.67A15.26,15.26,0,0,1,1716.18,587.46Z"/><rect class="cls-21" x="1700.97" y="528.39" width="30.42" height="45.64" rx="14.34" transform="translate(3432.36 1102.42) rotate(180)"/><ellipse class="cls-1" cx="2390.58" cy="1324.15" rx="164.93" ry="10.04"/><path class="cls-22" d="M2533.56,1260.81s15.47,9.92,15.94,16-18.3,42.94-22.76,45.52-25.57,6.33-32.14,4.92,15.57-16.36,17.22-19.41,5.14-26.18,5.14-26.18Z"/><path class="cls-23" d="M2363.78,1065.14s32.48,87,59.89,128.53,93.29,88,93.29,88,17.1-5.79,16.6-20.87c0,0-32.69-32.44-39.73-44.76s-8.8-26.91-33.44-41.24c0,0-17.86-95.12-28.92-116s-13.08-24.7-13.08-24.7Z"/><path class="cls-24" d="M2280.07,1262.24s-1.5,19.17-6.29,21.61c0,0-5.56,1.17-22.06-8,0,0-18.06-2.35-24.31-7s-14.55-12.21-13.28-13.67,25,5.49,43.21-.52Z"/><path class="cls-25" d="M2441.55,1039.79s22.44,39.43-15.92,61.41-103.62,39-103.62,39-1.12,23.77-7.85,38.13-29.15,62.35-34.09,83.88c0,0-15.25-2.69-23.1-7.85,0,0,32.52-125.6,44.18-138.16s81.2-57.38,81.2-57.38Z"/><path class="cls-26" d="M2453.73,810.25S2439,796.92,2441,789.49c0,0,2-2.93,10.47,4.92,0,0-3.35-22,10.77-19.78s11.19,23.76,7,36.78C2469.15,811.41,2460.65,813,2453.73,810.25Z"/><path class="cls-26" d="M2255,852.64s.16-22.55-4.1-22.84-4,9.84-4,9.84-9.26-15.28-10.14-18.66-5.59,1.47-7.35,4.11-6.76,9.61-1.18,25.09c0,0,7.37,13,14.56,14A20.76,20.76,0,0,0,2255,852.64Z"/><path class="cls-2" d="M2242.78,864.2s2.19,2.68,5.56,6.74c.93,1.12,1.95,2.34,3,3.64,1.73,2.08,3.64,4.36,5.63,6.73,3.79,4.47,7.87,9.25,11.65,13.56,2.11,2.41,4.13,4.67,5.95,6.65a69.56,69.56,0,0,0,7.11,7.1c.74.56,2,1.39,3.57,2.43,2.21,1.43,5.14,3.25,8.46,5.28,4.86,3,10.58,6.4,16.17,9.71,3,1.76,5.86,3.48,8.59,5.09l7.11,4.17h0c5.27,3.1,8.82,5.17,8.82,5.17s.09,1.11.29,3.16c.3,3.12.85,8.42,1.7,15.19.34,2.69.73,5.6,1.16,8.71.68,4.83,1.48,10.12,2.42,15.71a1.18,1.18,0,0,0,0,.2q.69,4.14,1.49,8.48h0c1.27,6.85,2.73,14,4.4,21.18.68,2.87,1.38,5.75,2.12,8.61,1.5,5.79,3.15,11.54,5,17.09q1.41,4.37,3,8.54c1.56,4.24,3.23,8.31,5,12.15.89,1.94,1.82,3.83,2.78,5.64,0,0,3.57-.57,9.65-1.91l3.34-.76c.74-.17,1.5-.35,2.29-.55l.37-.08,1.43-.35,1-.27.57-.14,1.78-.45.12,0c4.72-1.22,10.07-2.72,15.87-4.53l.07,0,3-1,.13,0,3.08-1,.15,0,3.14-1.08.15,0,3.2-1.13.15-.06,3.27-1.2.12,0c1.11-.41,2.23-.83,3.35-1.27l.09,0c1.13-.43,2.27-.88,3.42-1.34l.06,0,1.57-.63,1.92-.8,0,0q1.77-.72,3.54-1.5h0c3.59-1.56,7.2-3.21,10.82-5,0,0-.14-.56-.39-1.62-.2-.82-.47-1.92-.78-3.29-.1-.39-.2-.8-.3-1.24-.48-2-1-4.51-1.69-7.33-1.12-4.9-2.44-10.85-3.79-17.34-.59-2.78-1.18-5.66-1.76-8.61h0c-1.41-7.06-2.79-14.46-4-21.67-.48-2.93-.93-5.84-1.33-8.69-.78-5.5-1.4-10.75-1.77-15.48-.25-3.23-.39-6.21-.38-8.87a31.1,31.1,0,0,1,1.16-9.64,95.89,95.89,0,0,1,4.16-9.51c1.64-3.33,3.56-7,5.63-10.74l.63-1.15c1.42-2.56,2.89-5.18,4.39-7.81,3.11-5.45,6.32-10.94,9.3-16.06,1.58-2.72,3.09-5.33,4.49-7.77,4-7,7-12.55,7.91-15.32a30,30,0,0,0,.81-3.34c.46-2.31.91-5.31,1.34-8.7.8-6.32,1.55-14,2.18-21.19.27-3.06.5-6,.72-8.76.21-2.58.38-4.95.53-7,.32-4.42.51-7.27.51-7.27s-10.65.42-14.92-1l-.5-.19s-.94,2.42-2.31,6.28c-.65,1.82-1.4,4-2.19,6.34-.86,2.57-1.76,5.41-2.66,8.37a166.42,166.42,0,0,0-4.74,19.37,59.29,59.29,0,0,0-.94,9,24,24,0,0,0,.27,4.22s-2.77,3.77-6.88,8.84c-1.69,2.08-3.61,4.39-5.66,6.75a132.31,132.31,0,0,1-13.07,13.33,36,36,0,0,1-7.39,5.15,13.93,13.93,0,0,1-1.49.62c-8.86,3.1-14.86,8-23.88,10.24a41.81,41.81,0,0,1-11.67,1.12s-4.31.26-10,.48c-7.5.3-17.38.54-22.83.06a16.21,16.21,0,0,1-3.23-.54,57.1,57.1,0,0,1-5.39-2.41c-4.73-2.31-11.49-5.84-17.65-9.11-2.81-1.49-5.51-2.93-7.82-4.18-4.41-2.37-7.47-4-7.47-4l-5-4.49-6.56-5.88-14.1-12.64-6.56-5.88-3.18-2.85-6.38-5.72,0,.06c-.42.76-4.94,8.92-12.05,11.47h0Z"/><path class="cls-26" d="M2353.87,899.26a14.86,14.86,0,0,1,4.65,5.39,56.88,56.88,0,0,1,5.06,13.81c12.87,1.69,19.31-8.92,19.31-8.92l-1.61-14.07-1.55-19.13-23.15.7-2.69,22Z"/><path class="cls-1" d="M2353.87,899.26a14.86,14.86,0,0,1,4.65,5.39c3.78-1.15,10.46-4.73,13.25-10l-17.88,4.47Z"/><path class="cls-26" d="M2363.48,851.61c-8.86,0-16.82,1.45-19.54,8.69s-3.44,34.55,6,43.6c0,0,31.12-1.09,28.77-31.48S2363.48,851.61,2363.48,851.61Z"/><path class="cls-27" d="M2375,879.82s-4.74-3.32-4.74-7.94,2.14-11.62-5.45-12-7.47,3.56-16.24,2.13-9.36-8.06-7.7-9.84,24.77-14.81,41.72-3.43,12.33,39.23-1.3,46.7Z"/><path class="cls-26" d="M2371.12,879s6.46-10,10.32-2.58-10.32,13.7-10.32,13.7Z"/><path class="cls-28" d="M2446.57,831.23a98.23,98.23,0,0,0,20.82,3.19c.27-3.06.5-6,.72-8.76a90.25,90.25,0,0,1-18.88-2.8C2448.37,825.43,2447.47,828.27,2446.57,831.23Z"/><path class="cls-28" d="M2440.89,859.57a99,99,0,0,0,23,4.74c.46-2.31.91-5.31,1.34-8.7a90.75,90.75,0,0,1-23.38-5A59.29,59.29,0,0,0,2440.89,859.57Z"/><path class="cls-28" d="M2428.62,879.38a86.86,86.86,0,0,0,22,11.36c1.58-2.72,3.09-5.33,4.49-7.77a80.65,80.65,0,0,1-20.87-10.34C2432.59,874.71,2430.67,877,2428.62,879.38Z"/><path class="cls-28" d="M2408.16,897.86c9.28,8.65,20.33,13.8,28.81,16.75,1.42-2.56,2.89-5.18,4.39-7.81-7.36-2.43-17.36-6.76-25.81-14.09A36,36,0,0,1,2408.16,897.86Z"/><path class="cls-28" d="M2251.39,874.58c1.73,2.08,3.64,4.36,5.63,6.73a72.33,72.33,0,0,0,14.05-14.22l-6.56-5.88A63.49,63.49,0,0,1,2251.39,874.58Z"/><path class="cls-28" d="M2268.67,894.87c2.11,2.41,4.13,4.67,5.95,6.65,7.07-4.34,12.88-10.49,17.11-15.91l-6.56-5.88C2281.13,885,2275.45,891.11,2268.67,894.87Z"/><path class="cls-28" d="M2285.3,911.05c2.21,1.43,5.14,3.25,8.46,5.28,7.86-5,14.1-12.24,18.27-18-2.81-1.49-5.51-2.93-7.82-4.18C2299.81,900,2293.24,907.24,2285.3,911.05Z"/><path class="cls-28" d="M2309.93,926c3,1.76,5.86,3.48,8.59,5.09,9.06-6,15.88-14.87,19.78-20.75a16.21,16.21,0,0,1-3.23-.54,57.1,57.1,0,0,1-5.39-2.41C2325.46,913.44,2318.53,921.7,2309.93,926Z"/><path class="cls-28" d="M2336.45,958.82c.34,2.69.73,5.6,1.16,8.71,30.32-2.75,65.64-8.8,88.16-13-.25-3.23-.39-6.21-.38-8.87C2403,949.84,2366.88,956.06,2336.45,958.82Z"/><path class="cls-28" d="M2340,983.24a1.18,1.18,0,0,0,0,.2q.69,4.14,1.49,8.48c30.85-3,66-9.18,87.31-13.23-.48-2.93-.93-5.84-1.33-8.69C2406.2,974,2370.68,980.23,2340,983.24Z"/><path class="cls-28" d="M2346,1013.11c.68,2.87,1.38,5.75,2.12,8.61,29.72-2.72,64.11-8.57,86.52-12.75-.59-2.78-1.18-5.66-1.76-8.61C2410.21,1004.56,2375.38,1010.47,2346,1013.11Z"/><path class="cls-28" d="M2353,1038.81q1.41,4.37,3,8.54c16.54-1.55,34.46-4,50.9-6.68,4.72-.75,9.32-1.51,13.74-2.27,7.18-1.22,13.86-2.43,19.75-3.52-.1-.39-.2-.8-.3-1.24-.48-2-1-4.51-1.69-7.33C2415.85,1030.47,2381.88,1036.19,2353,1038.81Z"/><path class="cls-28" d="M2325.64,935.3c5.27,3.1,8.82,5.17,8.82,5.17s.09,1.11.29,3.16c39.33-2.5,78.19-12.19,96-17.13,1.64-3.33,3.56-7,5.63-10.74C2426.36,918.77,2375,933.62,2325.64,935.3Z"/><path class="cls-29" d="M2393,864.89s-29.11,9-50.85,4.7c0,0-1.27,7.1,0,12.75a133.34,133.34,0,0,0,51.4-13.87,8.84,8.84,0,0,0-.55-3.58Z"/><path class="cls-26" d="M2363.74,874.72s-6.28-2.82-11.88,1.55A12.92,12.92,0,0,0,2363.74,874.72Z"/><path class="cls-26" d="M2348.55,876.15a4.38,4.38,0,0,0-6.41-.55,4.81,4.81,0,0,0,2.43,1.41A5.08,5.08,0,0,0,2348.55,876.15Z"/><path class="cls-30" d="M1302.86,766.34s11.06,17.07-12.41,25.8l-1.14,1.38c-6.46,7.83-38.46,46.53-41.94,48.93-1.57,1.09-7,6.74-13.46,13.47-4-12.36-10.31-17.81-14.33-20.13,4.88-4.19,8.71-7.57,10.19-9.39,5.53-6.8,43.43-33,50.5-40.15a4.54,4.54,0,0,0,1.13-1.46c1-3.69-1.35-12.75,6.7-17.1s21.8-19.11,23.81-17.77S1302.86,766.34,1302.86,766.34Z"/><path class="cls-2" d="M1233.91,855.92l-2.33,2.42c-2,2.14-4.17,4.34-6.27,6.5-7,7.21-13.83,14-17.34,16.5-8.38,6-20.52,1.35-25-6-2.62-4.3,10.15-16.55,23.09-27.89,2.4-2.09,4.8-4.16,7.11-6.14l6.42-5.49C1223.6,838.11,1229.92,843.56,1233.91,855.92Z"/><path class="cls-2" d="M1289.31,793.52c-1.43,1.74-4.11,5-7.47,9l-5.65,6.79c-3.67,4.39-7.65,9.14-11.47,13.65-2,2.39-4,4.7-5.84,6.85-4.13,4.8-7.65,8.79-9.74,11a14.88,14.88,0,0,1-1.77,1.66,53,53,0,0,0-4.71,4.44c-2.39,2.41-5.44,5.58-8.75,9-4-12.36-10.31-17.81-14.33-20.13,2.08-1.79,4-3.42,5.56-4.85a49.43,49.43,0,0,0,4.63-4.54,22.41,22.41,0,0,1,1.81-1.89c2.37-2.23,6.26-5.38,10.84-8.93,2.37-1.83,4.92-3.77,7.56-5.76,4.5-3.39,9.21-6.91,13.58-10.21h0c2.69-2,5.25-4,7.54-5.75a110.21,110.21,0,0,0,9.16-7.61A24.66,24.66,0,0,1,1289.31,793.52Z"/><ellipse class="cls-1" cx="1147.36" cy="1326.92" rx="107.98" ry="10.04"/><path class="cls-24" d="M1056.3,1267.46s-12.93,8.9-11,15.1,24,32.67,30.37,36.15,18.6,6.31,21.9,4.43-17.64-19.63-25.06-46.06Z"/><path class="cls-31" d="M1140.81,1019s-11.82,32.29-13.68,49.06-13.05,80.88-13.05,80.88-21.74,18.53-24.85,34.06-21.74,67.1-32.93,84.5c0,0,9.32,11.16,16.16,9.62,0,0,67.1-108.37,73.31-119.26S1195.05,1026,1195.05,1026Z"/><path class="cls-24" d="M1172.91,1301.16s-5.21,18.69-1.59,24.87c0,0,13.41-1.28,19,1.49s45.77,6.81,50.67,2.55c0,0-1.7-4-11.07-6.17s-31.26-17.16-32.77-22.74Z"/><path class="cls-32" d="M1220,1026.81s-7.21,115.46-8.69,146.44-14.22,127.91-14.22,127.91-13.16,3.57-24.19,0c0,0,3.39-53.22,0-62.56s-5.94-52.62,3-67c0,0-36.58-114.54-20.9-150.4Z"/><polygon class="cls-30" points="1201.28 841.44 1199.43 848.76 1197.62 855.95 1195.53 864.22 1171.05 860.82 1172.2 849.06 1174.07 837.46 1201.28 841.44"/><path class="cls-2" d="M1225.27,973.86q-.15,4.51-.41,8.79c-.41,7.39-1,14.18-1.6,20.09-.33,3.2-.67,6.15-1,8.8-1.19,9.55-2.24,15.27-2.24,15.27s-41.73,3.58-79.21-7.84c0,0,.38-5.34.86-13.48.15-2.69.33-5.68.5-8.9.32-6,.65-12.75.91-19.67.12-3,.22-6,.31-8.94.2-6.87.32-13.66.28-19.79,0-3.22-.07-6.25-.17-9-.12-3.16-.3-6-.57-8.32a76.4,76.4,0,0,1-.26-11.68c.12-2.81.37-5.79.74-8.86a124,124,0,0,1,3.35-17.38c.78-2.91,1.67-5.78,2.69-8.53a63.3,63.3,0,0,1,7.13-14.23,30.7,30.7,0,0,1,7.7-7.93,18.14,18.14,0,0,1,13.87-3c4.14.74,10.94,1.43,18.09,5.55a39,39,0,0,1,10.62,9.11,58.94,58.94,0,0,1,8.93,15.49,89.46,89.46,0,0,1,3,8.77,131.29,131.29,0,0,1,3.81,18.11c0,.13,0,.25.06.38q.6,4.18,1,8.38c.74,6.72,1.22,13.43,1.49,20,.13,3,.21,5.9.26,8.79C1225.59,960.74,1225.5,967.48,1225.27,973.86Z"/><path class="cls-1" d="M1199.43,848.76l-1.81,7.19c-3.46-1.46-11.87-5.48-12.16-10.31Z"/><path class="cls-28" d="M1281.84,802.54l-5.65,6.79a49.89,49.89,0,0,0-12.62-9.72c2.69-2,5.25-4,7.54-5.75A57,57,0,0,1,1281.84,802.54Z"/><path class="cls-28" d="M1264.72,823c-2,2.39-4,4.7-5.84,6.85a47.88,47.88,0,0,0-16.46-14.25c2.37-1.83,4.92-3.77,7.56-5.76A55.57,55.57,0,0,1,1264.72,823Z"/><path class="cls-28" d="M1249.14,840.79a14.88,14.88,0,0,1-1.77,1.66,53,53,0,0,0-4.71,4.44,46.72,46.72,0,0,0-17.52-15.95,49.43,49.43,0,0,0,4.63-4.54,22.41,22.41,0,0,1,1.81-1.89A55.1,55.1,0,0,1,1249.14,840.79Z"/><path class="cls-28" d="M1231.58,858.34c-2,2.14-4.17,4.34-6.27,6.5-5.58-9.46-14.25-14.9-19.26-17.42,2.4-2.09,4.8-4.16,7.11-6.14A55,55,0,0,1,1231.58,858.34Z"/><path class="cls-30" d="M1182.78,800.18c13.28-2.58,18.15.72,21.54,7.74s9,39.7,6.3,43.82-32.2,1.69-36.55-14.29S1165.35,803.57,1182.78,800.18Z"/><path class="cls-33" d="M1190.74,825.3s3.88-7.61,2.18-18.68c0,0,13.34.57,11.5-14.48,0,0-21.72,3-33.64,1.14s-20.16,22.28-8.8,37.9,10.22,17.88,10.22,17.88S1191,848.94,1190.74,825.3Z"/><path class="cls-30" d="M1194.48,822.66s-4.54-7.38-8.66-3,2.84,12.49,8.66,12.63Z"/><path class="cls-28" d="M1223.26,1002.74c-.33,3.2-.67,6.15-1,8.8-3.11.07-6.17.1-9.16.1a395.67,395.67,0,0,1-71.43-6.15c.15-2.69.33-5.68.5-8.9,1.24.24,2.52.47,3.85.7A404.2,404.2,0,0,0,1223.26,1002.74Z"/><path class="cls-28" d="M1225.27,973.86q-.15,4.51-.41,8.79c-4,.1-7.95.15-11.77.15a397.75,397.75,0,0,1-70-5.88c.12-3,.22-6,.31-8.94A401.08,401.08,0,0,0,1225.27,973.86Z"/><path class="cls-28" d="M1225.47,953.81q-6.35.16-12.38.16a398.8,398.8,0,0,1-69.42-5.78c0-3.22-.07-6.25-.17-9a401.66,401.66,0,0,0,81.71,5.85C1225.34,948,1225.42,950.92,1225.47,953.81Z"/><path class="cls-28" d="M1223.72,925c-3.62.08-7.17.12-10.63.12a396.38,396.38,0,0,1-70.42-6c.12-2.81.37-5.79.74-8.86a399.42,399.42,0,0,0,79.2,5.94c0,.13,0,.25.06.38Q1223.27,920.82,1223.72,925Z"/><path class="cls-28" d="M1218.8,898.14l-5.71,0a402.62,402.62,0,0,1-66.33-5.24c.78-2.91,1.67-5.78,2.69-8.53a402,402,0,0,0,66.34,5A89.46,89.46,0,0,1,1218.8,898.14Z"/><path class="cls-28" d="M1206.86,873.88a406.33,406.33,0,0,1-50.28-3.71,30.7,30.7,0,0,1,7.7-7.93c9.35,1.12,20,2,32,2.53A39,39,0,0,1,1206.86,873.88Z"/><path class="cls-30" d="M1215.82,1018.49c-.24,6.69-6.92,18.91-9.92,19.14s-16.13-7.61-9.8-26.52c0,0-1.22-1.15-3.26-3.13a37.46,37.46,0,0,0,11.68-9.59l.07,0C1210.28,1001.2,1216.05,1011.81,1215.82,1018.49Z"/><path class="cls-34" d="M1204.52,998.39a37.46,37.46,0,0,1-11.68,9.59c-2.85-2.75-7.29-7.11-12.25-12.2-2-2-4.09-4.23-6.19-6.46-7.74-8.22-15.66-17.27-20.27-24.32-2.26-3.45-3.73-6.42-4-8.57a5.07,5.07,0,0,1,0-.66c0-4.44,2-11.43,4.88-19.29,1.17-3.15,2.5-6.45,3.92-9.77,1.16-2.71,2.37-5.45,3.62-8.14,3.7-8,7.63-15.64,10.87-21.37l.27-.48c1.62-2.87,3.09-5.45,4.47-7.7,6.1-9.95,10.49-13.5,19.24-7.73,7.71,5.09,7.77,13.63,4.88,22.35a63,63,0,0,1-3.43,8.1c-.47.93-1,1.85-1.45,2.76-2.16,3.93-5.22,9-8.34,14.12-1.68,2.73-3.37,5.44-5,8-4.25,6.77-7.68,12-7.68,12s.39.84,1.11,2.29c.87,1.81,2.23,4.59,3.89,7.92,2.64,5.28,6,12,9.44,18.32,1.46,2.71,2.92,5.38,4.33,7.84C1199.12,992,1202.67,997.39,1204.52,998.39Z"/><path class="cls-28" d="M1195.16,985a158.07,158.07,0,0,1-14.57,10.79c-2-2-4.09-4.23-6.19-6.46a149.78,149.78,0,0,0,16.43-12.17C1192.29,979.86,1193.75,982.53,1195.16,985Z"/><path class="cls-28" d="M1181.39,958.83a102.55,102.55,0,0,1-27.26,6.17c-2.26-3.45-3.73-6.42-4-8.57a93,93,0,0,0,27.36-5.52C1178.37,952.72,1179.73,955.5,1181.39,958.83Z"/><path class="cls-28" d="M1202.25,903.64a63,63,0,0,1-3.43,8.1,123.8,123.8,0,0,1-25.16-15c1.62-2.87,3.09-5.45,4.47-7.7A117,117,0,0,0,1202.25,903.64Z"/><path class="cls-28" d="M1189,928.62c-1.68,2.73-3.37,5.44-5,8a92.54,92.54,0,0,1-25.17-9.86c1.16-2.71,2.37-5.45,3.62-8.14A84.94,84.94,0,0,0,1189,928.62Z"/><path class="cls-28" d="M1157.05,819.43s34.65-4.91,48.66-7.65a40.05,40.05,0,0,1,3.08,13.52s-32.34,1.06-50.9-2.38Z"/><path class="cls-30" d="M1196,819.16s4-4.43,10.08-1.21C1206.05,818,1201.13,822.42,1196,819.16Z"/><ellipse class="cls-1" cx="518.78" cy="1294.75" rx="106.53" ry="11.83"/><path class="cls-35" d="M540.72,1278.18s18.15,5.17,28.82-3.32c0,0,16.45,17.25,34.08,18.56,0,0,3,3.26,0,3.92s-37.65,2-44.18-2.83c0,0-10.41,4.28-18.72-.88C536.15,1290.81,540.72,1278.18,540.72,1278.18Z"/><path class="cls-35" d="M488.5,1277.21s-17.69,5-28.08-3.23c0,0-16,16.8-33.2,18.08,0,0-3,3.18,0,3.81s36.68,1.91,43-2.75c0,0,10.13,4.17,18.24-.85C492.94,1289.52,488.5,1277.21,488.5,1277.21Z"/><path class="cls-36" d="M468.37,1036.45l-9.81,238.79s19.67,9.2,30,2.11L495,1177.14l20.47-91.06L550,1175.51l-9.81,102.94s24.42,5.15,31.62-3.59l11.67-106.09a24.36,24.36,0,0,0-.51-8.25L555.6,1045S493.06,1055.54,468.37,1036.45Z"/><path class="cls-30" d="M519.89,868.5a17.12,17.12,0,0,0,10.53-4l-1.12,28.67L498.79,900l-.35-21.5v-19A28,28,0,0,0,519.89,868.5Z"/><path class="cls-37" d="M531.3,842l-.77,19.84a14.18,14.18,0,0,1-11.33,5.14c-11.36,0-17.93-7.54-21.72-16.44l-1.05-9.8Z"/><path class="cls-30" d="M530.53,861.79a14.18,14.18,0,0,1-11.33,5.14c-11.36,0-17.93-7.54-21.72-16.44C492,837.66,492.31,822,492.31,822l4.7-4.46,8.75-8.3,29.1-3.57a161.2,161.2,0,0,1,2.61,26.66C537.55,843.43,536.08,855.24,530.53,861.79Z"/><path class="cls-38" d="M530.53,861.79l-.11,2.75a17.12,17.12,0,0,1-10.53,4,28,28,0,0,1-21.45-9l-1-9c3.79,8.9,10.36,16.44,21.72,16.44A14.18,14.18,0,0,0,530.53,861.79Z"/><path class="cls-30" d="M530.53,861.79a14.18,14.18,0,0,1-11.33,5.14c-11.36,0-17.93-7.54-21.72-16.44C492,837.66,492.31,822,492.31,822l4.7-4.46,40.46,14.79C537.55,843.43,536.08,855.24,530.53,861.79Z"/><path class="cls-39" d="M497.59,817.71s34.28,9.51,48-14.23c0,0-22.4-9.39-34.79-9.39s-19.49,13.36-19.49,13.36-17,10.3,6.46,46.06Z"/><path class="cls-30" d="M498.91,829.92c2.46,3.48,2.71,7.53.57,9s-5.87-.09-8.33-3.57-2.71-7.53-.56-9S496.46,826.44,498.91,829.92Z"/><path class="cls-2" d="M555.6,887.44V1045c-39.31,15-87.23,0-87.23,0V886.66l24.9-6.89,5.18-1.28,7.41,4.74a15.36,15.36,0,0,0,17.57-.7l6.48-4.92,5.61,2.45Z"/><path class="cls-30" d="M673.59,908.23s2.46,15-5.39,22.81a36.13,36.13,0,0,1-11.81,3l-4.9,3.85c-5.52-6.16-8.28-15.42-8.28-15.42s6-24.88,23-18.69c0,0,22.75-15.42,24.88-13.3S673.59,908.23,673.59,908.23Z"/><path class="cls-2" d="M651.49,937.87l-15.93,12.5-6.89,5.39-12.22,9.6-4.14,3.24-2.85,2.23-1.29,1-12.88,10.09s-4.41,3.15-7.57,0c-1.85-1.85-12.66-17-21.23-29.11-1.69-2.39-3.29-4.65-4.71-6.68l-6.18-8.8V887.44a8.18,8.18,0,0,1,1,.9,57.26,57.26,0,0,1,6.24,7.55c2.37,3.28,5.38,7.78,9.13,14l2.23,3.65c1.56,2.56,3.12,5.09,4.64,7.56,2.47,4,4.86,7.86,7,11.35l4.25,6.81c3.8,6,6.27,9.94,6.27,9.94l2.52-1.44.24-.13h0l3.28-1.87,3.74-2.13,13.51-7.72,7-4,16.47-9.4S646,931.71,651.49,937.87Z"/><path class="cls-28" d="M555.6,940.25v8c-17.66,1.2-34.55,1.65-49.94,1.65-13.8,0-26.41-.36-37.29-.87v-8A764.31,764.31,0,0,0,555.6,940.25Z"/><path class="cls-28" d="M555.6,966.58v8c-18.87,1.37-36.93,1.88-53.3,1.88-12.4,0-23.84-.29-33.93-.71v-8A760.4,760.4,0,0,0,555.6,966.58Z"/><path class="cls-28" d="M555.6,992.87v8c-18.75,1.36-36.67,1.86-52.93,1.86-12.56,0-24.12-.3-34.3-.73v-8A759.5,759.5,0,0,0,555.6,992.87Z"/><path class="cls-28" d="M555.6,1020.89v8c-19.29,1.43-37.74,2-54.43,2-11.94,0-23-.27-32.8-.67v-8A758.73,758.73,0,0,0,555.6,1020.89Z"/><path class="cls-2" d="M468.37,886.66V933a167.83,167.83,0,0,0-19.58,17.79c-2.05,2.22-4,4.55-5.86,6.93-3.73,4.89-6.69,10-7.79,14.73a20,20,0,0,0-.39,2.36q0,.48-.06,1a18.45,18.45,0,0,0,1.33,7c.35.94.76,1.89,1.22,2.84a66.84,66.84,0,0,0,8.66,12.85c1.86,2.23,3.82,4.42,5.8,6.5a203.87,203.87,0,0,0,16.67,15.5A19.3,19.3,0,0,0,456.71,1035h0a286.14,286.14,0,0,1-27-24.25c-2.2-2.28-4.35-4.62-6.41-7-1.55-1.8-3.05-3.63-4.46-5.45-.08-.12-.17-.23-.26-.35A49.74,49.74,0,0,1,410,981.26c-.09-.28-.16-.56-.24-.84a40.75,40.75,0,0,1-1.24-7.44,31.25,31.25,0,0,1,1.65-13.29,108.93,108.93,0,0,1,6.25-12.45c1.33-2.3,2.75-4.58,4.23-6.85a212,212,0,0,1,13.3-18c2.13-2.59,4.27-5.1,6.39-7.51,6.19-7,12.2-13.2,17.06-18,3.3-3.24,6.07-5.83,8-7.59h0C467.29,887.61,468.37,886.66,468.37,886.66Z"/><path class="cls-30" d="M480,1051.67c-10,2-18.44-12.92-18.44-12.92s-1.84-1.36-4.85-3.75a19.3,19.3,0,0,1,11.66-14.53c1.4,1.16,2.22,1.8,2.22,1.8l12.75,6.08C496.09,1034.43,490,1049.67,480,1051.67Z"/><path class="cls-28" d="M562.89,895.89c-2.45.21-4.88.39-7.29.56-18.46,1.32-36.11,1.8-52.14,1.8-12.89,0-24.72-.31-35.09-.77-3.87-.16-7.54-.35-11-.55,3.3-3.24,6.07-5.83,8-7.59h0l3,.13a764,764,0,0,0,87.23-1.05l1-.08A57.26,57.26,0,0,1,562.89,895.89Z"/><path class="cls-28" d="M578.89,921.05c-7.86.89-15.64,1.61-23.29,2.18-19.42,1.46-38,2-54.79,2-11.8,0-22.72-.26-32.44-.66-14.52-.58-26.36-1.45-34.43-2.16,2.13-2.59,4.27-5.1,6.39-7.51,7.39.59,16.91,1.21,28,1.67a759.82,759.82,0,0,0,87.23-1.37c6.14-.46,12.37-1,18.65-1.7C575.81,916.05,577.37,918.58,578.89,921.05Z"/><path class="cls-28" d="M448.79,950.8c-2.05,2.22-4,4.55-5.86,6.93a95.14,95.14,0,0,1-26.52-10.49c1.33-2.3,2.75-4.58,4.23-6.85A90.46,90.46,0,0,0,448.79,950.8Z"/><path class="cls-28" d="M436,982.78c-1.08,0-2.18.05-3.28.05A190.7,190.7,0,0,1,410,981.26c-.09-.28-.16-.56-.24-.84a40.75,40.75,0,0,1-1.24-7.44,183.8,183.8,0,0,0,26.24,1.84q0,.48-.06,1A18.45,18.45,0,0,0,436,982.78Z"/><path class="cls-28" d="M451.7,1005a152.33,152.33,0,0,1-22,5.78c-2.2-2.28-4.35-4.62-6.41-7a165.67,165.67,0,0,0,22.58-5.27C447.76,1000.7,449.72,1002.89,451.7,1005Z"/><path class="cls-28" d="M590.17,939.21a178,178,0,0,1-23.68,13.62c-1.69-2.39-3.29-4.65-4.71-6.68a165.44,165.44,0,0,0,24.14-13.75Z"/><path class="cls-28" d="M616.45,965.36l-4.14,3.24-2.85,2.23a59.37,59.37,0,0,0-10.26-23.25l3.28-1.87,3.74-2.13A67.86,67.86,0,0,1,616.45,965.36Z"/><path class="cls-28" d="M635.56,950.37l-6.89,5.39a60,60,0,0,0-8.94-19.9l7-4A68,68,0,0,1,635.56,950.37Z"/><path class="cls-28" d="M486.12,828.07s33.38-7.34,51.36-4.27c0,0,1.06,8.81,0,12.5,0,0-25.4,7.69-50.32-3.31C487.16,833,486.12,831.5,486.12,828.07Z"/><path class="cls-30" d="M503.22,830.77s7.1-3.85,14-.41A12.68,12.68,0,0,1,503.22,830.77Z"/><path class="cls-30" d="M524.43,830.5s6.06-3.29,12-.34A10.83,10.83,0,0,1,524.43,830.5Z"/></svg>