<svg xmlns="http://www.w3.org/2000/svg" viewBox="0 0 1826.68 1806.12"><defs><style>.cls-1{isolation:isolate;}.cls-2{fill:#11344f;}.cls-3{fill:#1c7ba1;}.cls-4{fill:#578fb5;}.cls-5{fill:#c9e8fb;}.cls-6{fill:#8acff4;}.cls-7{fill:#fff;mix-blend-mode:soft-light;}.cls-8{fill:#e74645;}.cls-9{fill:#b53a35;}.cls-10{fill:#47c1f1;}.cls-11{fill:#00baee;}.cls-12{fill:#009cdc;}.cls-13{fill:#002f4d;}.cls-14{fill:#001f38;}.cls-15{fill:none;stroke:#b2b2b2;stroke-miterlimit:10;stroke-width:16.85px;}.cls-16{fill:#0671b9;}.cls-17{fill:#edeeed;}.cls-18{fill:#afc3cd;}.cls-19{fill:#195aa0;}.cls-20{fill:#195394;}.cls-21{fill:#004384;}.cls-22{fill:#6e93a3;}</style></defs><g class="cls-1"><g id="Lag_1" data-name="Lag 1"><path class="cls-2" d="M1603.62,1417.06a63.68,63.68,0,0,1-63.67,63.68H286.72a63.67,63.67,0,0,1-63.66-63.68V579.91a63.66,63.66,0,0,1,63.66-63.67H1540a63.68,63.68,0,0,1,63.67,63.67Z" transform="translate(0)"/><rect class="cls-3" x="284.02" y="574.38" width="1258.64" height="848.22"/><path class="cls-4" d="M1826.33,1756.67V1797c-1.3,4.84-6.89,9.1-22.54,9.1H22.88C9,1806.12,3,1802.79.94,1798.67v-42Z" transform="translate(0)"/><path class="cls-5" d="M22.88,1765.78c-36.18,0-18.62-22.76-18.62-22.76L217.82,1495.4a45.35,45.35,0,0,1,33.61-14.66H1575.22a45.31,45.31,0,0,1,33.62,14.66L1822.42,1743s17.57,22.76-18.63,22.76Z" transform="translate(0)"/><path class="cls-6" d="M148.68,1668.93c-20.46,0-10.53-12.88-10.53-12.88l120.7-139.94a25.66,25.66,0,0,1,19-8.28H1548.79a25.62,25.62,0,0,1,19,8.28l120.72,139.94s9.93,12.88-10.52,12.88Z" transform="translate(0)"/><path class="cls-6" d="M718.2,1751c-8.84,0-4.56-5.57-4.56-5.57l52.21-60.54a11.09,11.09,0,0,1,8.22-3.58h278.51a11,11,0,0,1,8.22,3.58l52.23,60.54s4.28,5.57-4.58,5.57Z" transform="translate(0)"/><path class="cls-7" d="M1138.92,1480.74H286.72a63.67,63.67,0,0,1-63.66-63.68V579.91a63.66,63.66,0,0,1,63.66-63.67h490.9Z" transform="translate(0)"/><path class="cls-8" d="M659.45,838.58C433.71,799.12,402.82,690.65,402.82,690.65S371.93,799.12,146.19,838.58c0,0-68.91,355,256.63,485.69C728.36,1193.59,659.45,838.58,659.45,838.58Z" transform="translate(0)"/><path class="cls-9" d="M614.1,870c-170.64-29.82-202.17-120.2-202.17-120.2S392.21,870.62,214.15,882.17c0,0-52,261.54,194.08,360.32C667.27,1186.2,614.1,870,614.1,870Z" transform="translate(0)"/><path class="cls-10" d="M593.2,882.17C425.74,852.91,402.82,772.43,402.82,772.43s-22.91,80.48-190.39,109.74c0,0-51.12,263.38,190.39,360.32C644.33,1145.55,593.2,882.17,593.2,882.17Z" transform="translate(0)"/><path class="cls-11" d="M341.89,837.29c-28.47,17.49-69.73,34.44-129.46,44.88,0,0-51.12,263.38,190.39,360.32,52.27-21,90.81-49.77,119.15-82C344.94,1081,337.07,908.06,341.89,837.29Z" transform="translate(0)"/><path class="cls-12" d="M433.12,1182.22c-200.71-80.56-169.59-293-166.25-312.66a487.91,487.91,0,0,1-54.44,12.61s-51.12,263.38,190.39,360.32c133.72-53.68,177.71-158.36,190.36-241.13C576.58,1067.43,534.34,1141.59,433.12,1182.22Z" transform="translate(0)"/><path class="cls-7" d="M557.48,966.05c-12.67,22.24-58.36,20.09-102.06-4.8s-68.88-63.09-56.22-85.33,58.36-20.08,102.06,4.81S570.14,943.82,557.48,966.05Z" transform="translate(0)"/><path class="cls-13" d="M444.78,956.2a41.1,41.1,0,1,0-65.36,33.13l-15.11,116.42h78.76L427.94,989.33A41,41,0,0,0,444.78,956.2Z" transform="translate(0)"/><path class="cls-14" d="M387.61,1092.62l15.12-116.41a41,41,0,0,1-6.42-60.42,41,41,0,0,0-16.89,73.54l-15.11,116.42h78.76l-1.71-13.13Z" transform="translate(0)"/><path class="cls-2" d="M1287.87,201.67A52.64,52.64,0,1,0,1340.51,149,52.63,52.63,0,0,0,1287.87,201.67Zm24,0a28.69,28.69,0,1,1,28.68,28.68A28.69,28.69,0,0,1,1311.83,201.67Z" transform="translate(0)"/><path class="cls-2" d="M1358.35,241.93V493.2s13.42,152.31-149,152.28c0,0-119-7.38-103.35-134.11,0,0-1.43,90.74,100.89,97.2,0,0,114.42,14.16,118.11-115.37V241.93Z" transform="translate(0)"/><line class="cls-15" x1="1340.51" y1="172.98" x2="1340.51"/><polygon class="cls-16" points="1517.3 787.16 1244.05 549.72 894.08 674.97 1517.3 787.16"/><rect class="cls-16" x="935.79" y="640.09" width="458.55" height="633.24" transform="translate(17.06 1933.83) rotate(-79.79)"/><rect class="cls-17" x="926.14" y="633.49" width="517.79" height="424.58" transform="translate(142.67 1862.22) rotate(-79.79)"/><rect class="cls-18" x="1331.46" y="667.14" width="8.54" height="53.41" transform="translate(416.04 1885.39) rotate(-79.79)"/><rect class="cls-18" x="1105.64" y="613.57" width="8.55" height="79.24" transform="translate(270.48 1629.88) rotate(-79.8)"/><rect class="cls-18" x="1224.4" y="615.23" width="8.55" height="118.69" transform="matrix(0.18, -0.98, 0.98, 0.18, 346.55, 1763.86)"/><rect class="cls-18" x="1283.3" y="679.91" width="8.55" height="130.09" transform="translate(326.19 1880.09) rotate(-79.79)"/><rect class="cls-18" x="1128.79" y="643.4" width="8.55" height="147.48" transform="translate(226.5 1705.2) rotate(-79.79)"/><polygon class="cls-18" points="1356.02 731.94 1357.53 723.54 1224.18 699.52 1222.66 707.94 1356.02 731.94"/><rect class="cls-18" x="1164.8" y="668.13" width="8.55" height="51.65" transform="translate(279.05 1721.65) rotate(-79.8)"/><rect class="cls-18" x="1086.81" y="654.08" width="8.55" height="51.65" transform="matrix(0.18, -0.98, 0.98, 0.18, 228.76, 1633.39)"/><rect class="cls-18" x="1277.27" y="711.09" width="8.55" height="130.09" transform="translate(290.66 1899.91) rotate(-79.8)"/><rect class="cls-18" x="1175.5" y="731.43" width="8.55" height="52.78" transform="translate(225.02 1784.75) rotate(-79.8)"/><rect class="cls-18" x="1088.59" y="703.15" width="8.54" height="78.04" transform="translate(168.18 1685.63) rotate(-79.76)"/><polygon class="cls-18" points="1334.15 851.05 1335.66 842.64 1250.01 827.22 1248.49 835.63 1334.15 851.05"/><rect class="cls-18" x="1298.07" y="772.98" width="8.55" height="76.67" transform="translate(272.51 1948.75) rotate(-79.76)"/><rect class="cls-18" x="1066.05" y="747.85" width="8.55" height="43.39" transform="translate(123.4 1686.67) rotate(-79.8)"/><rect class="cls-18" x="1170.78" y="711.94" width="8.55" height="152.91" transform="translate(191.02 1805.26) rotate(-79.8)"/><rect class="cls-18" x="1295.72" y="865.69" width="8.55" height="53.41" transform="translate(190.8 2013.12) rotate(-79.76)"/><rect class="cls-18" x="1069.9" y="812.12" width="8.54" height="79.25" transform="translate(45.51 1757.93) rotate(-79.79)"/><rect class="cls-18" x="1188.65" y="813.78" width="8.55" height="118.69" transform="translate(121.6 1891.79) rotate(-79.76)"/><rect class="cls-18" x="1247.56" y="878.46" width="8.55" height="130.09" transform="translate(101.62 2008.54) rotate(-79.8)"/><rect class="cls-18" x="1093.05" y="841.95" width="8.54" height="147.48" transform="translate(1.15 1832.76) rotate(-79.76)"/><rect class="cls-18" x="1250.08" y="846.54" width="8.55" height="135.49" transform="matrix(0.18, -0.98, 0.98, 0.18, 131.65, 1986.13)"/><rect class="cls-18" x="1129.06" y="866.68" width="8.55" height="51.65" transform="matrix(0.18, -0.98, 0.98, 0.18, 54.14, 1849.76)"/><rect class="cls-18" x="1051.07" y="852.63" width="8.55" height="51.66" transform="translate(3.83 1761.49) rotate(-79.8)"/><rect class="cls-18" x="1241.53" y="909.64" width="8.55" height="130.09" transform="translate(65.74 2028) rotate(-79.79)"/><rect class="cls-18" x="1139.76" y="929.98" width="8.54" height="52.77" transform="translate(0.08 1912.83) rotate(-79.79)"/><rect class="cls-18" x="1052.85" y="901.7" width="8.55" height="78.04" transform="matrix(0.18, -0.98, 0.98, 0.18, -56.52, 1813.79)"/><polygon class="cls-18" points="1298.4 1049.6 1299.92 1041.2 1214.26 1025.77 1212.75 1034.18 1298.4 1049.6"/><rect class="cls-18" x="1262.33" y="971.53" width="8.55" height="76.67" transform="translate(48.46 2077.69) rotate(-79.8)"/><rect class="cls-18" x="1030.31" y="946.4" width="8.55" height="43.38" transform="translate(-101.42 1814.89) rotate(-79.8)"/><rect class="cls-18" x="1135.04" y="910.49" width="8.55" height="152.91" transform="translate(-33.9 1933.35) rotate(-79.79)"/><polygon class="cls-19" points="1517.3 787.16 1168.29 938.8 1436.06 1238.46 1517.3 787.16"/><polygon class="cls-19" points="894.08 674.97 1168.29 938.8 812.84 1126.26 894.08 674.97"/><polygon class="cls-20" points="1436.06 1238.46 1175.38 899.4 812.84 1126.26 1436.06 1238.46"/><path class="cls-21" d="M1196.31,926.63l239.75,311.83S1236.89,909,1235.15,909.76,1196.31,926.63,1196.31,926.63Z" transform="translate(0)"/><path class="cls-21" d="M1146.24,917.82,812.8,1126.46s301.56-239.32,302.94-238S1146.24,917.82,1146.24,917.82Z" transform="translate(0)"/><path class="cls-22" d="M1177.84,626.32A28.11,28.11,0,1,0,1206,598.21,28.12,28.12,0,0,0,1177.84,626.32Z" transform="translate(0)"/><path class="cls-2" d="M1106,511.37s-1.41,90.46,100.44,97.16V645.2C1188.29,643.07,1091.79,626.26,1106,511.37Z" transform="translate(0)"/><path class="cls-2" d="M1185.86,626.89a18.6,18.6,0,1,0,18.59-18.59A18.59,18.59,0,0,0,1185.86,626.89Z" transform="translate(0)"/></g></g></svg>