<svg id="Lag_1" data-name="Lag 1" xmlns="http://www.w3.org/2000/svg" viewBox="0 0 1164.85 1481.96"><defs><style>.cls-1{fill:#db5d5d;}.cls-2{fill:#ca5555;}.cls-3{fill:#e96565;}.cls-4{fill:#5d74b5;}.cls-5{fill:#50515b;opacity:0.3;}.cls-6{fill:#4d61a6;}.cls-7{fill:#ffbf92;}.cls-8{fill:#f09670;}.cls-9{fill:#f9b149;}.cls-10{fill:#8d5126;}.cls-11{fill:#a56533;}.cls-12,.cls-14{fill:#a0acae;}.cls-13{fill:#d0e5ea;}.cls-14{opacity:0.2;}.cls-15{fill:#526668;}.cls-16{fill:#d98921;}</style></defs><path class="cls-1" d="M1120.05,1196.66c.33-1,31.44-95.53.72-127.27a31.91,31.91,0,0,0-10.14-7.05c-47.09-20.66-68.62,13-80.73,57.38s-35,92-127.81,77S746,1090.12,689.51,1099.54s-73.26,50-101.21,105-69,92.74-168.9,48.34S183.62,985.18,152.68,799.51c-2.67-16-4.9-32.6-6.7-49.6C126.89,569.79,156.25,343.59,229.71,269c0,0,110.66-45.55,259.66,11.74,0,0,1,74.11,19.18,142.73,0,0,52.26,160.23,174.7,246.17a299.38,299.38,0,0,0,65.48,35.07c169.52,64.58,239.46,39.64,340.37,123.06S1179.24,1125.61,1120.05,1196.66Z"/><path class="cls-2" d="M659.91,791.43c-35.55,29.82-53.82-5.38-100.91-29.28s-60.54,26.59-25.28,116.74,18.55,127.81-49.35,113.37S372,831.8,330.28,823s-13.46,81.49-61.11,77.45-68.05-149.34-107.9-154.72A20,20,0,0,0,146,749.91C126.89,569.79,156.25,343.59,229.71,269c0,0,110.66-45.55,259.66,11.74,0,0,1,74.11,19.18,142.73,0,0,52.26,160.23,174.7,246.17-16.86,2.8-33.08,9.49-43.52,23.59C613,729.36,695.45,761.62,659.91,791.43Z"/><path class="cls-3" d="M1120.05,1196.66c.33-1,31.44-95.53.72-127.27-9.63-71.54-101.61-173.85-255-229.52-166.83-60.55-177.6-67.27-294.65-216.7s-81.74-342.44-81.74-342.44,1,74.11,19.18,142.73c0,0,70.67,216.67,240.18,281.24s239.46,39.64,340.37,123.06S1179.24,1125.61,1120.05,1196.66Z"/><path class="cls-4" d="M256.87,342.17a57.76,57.76,0,0,1-32.52,17.42c-54,9.76-169.18-57.61-199.42-94.35C7.36,243.9-.47,223,1.5,208.36c2.63-19.48,22.71-27.7,60.43-10.55,0,0,50,53.5,142,65.64C272.94,272.56,280.3,316.6,256.87,342.17Z"/><path class="cls-5" d="M256.87,342.17a57.76,57.76,0,0,1-32.52,17.42c-54,9.76-169.18-57.61-199.42-94.35C7.36,243.9-.47,223,1.5,208.36c14.79,21.2,53.8,69.47,119.43,99.23A407.9,407.9,0,0,0,256.87,342.17Z"/><path class="cls-4" d="M423.86,493.42c-4,43.84,1,74.17,6.34,92.63,4.41,15.25,9.06,22.4,9.06,22.4-10.09,18.17-78.71,50.46-132.53,51.8s-102.25-36.32-102.25-36.32c.1-8.13.41-18.07.86-29.08,2.48-60.94,9.23-154.57,9.23-154.57,10.09-97.55,25.11-169.53,25.11-169.53,4-6.26,33.05-14.31,62.12-24.59l.22-.08c1.17-.41,2.33-.8,3.49-1.17A162.3,162.3,0,0,1,359,237.45a158.3,158.3,0,0,1,45.61,7.91q5.39,1.83,10.3,3.95c15.53,6.66,27.8,15.23,39.11,23.46,22.2,16.14,32.29,34.31,20.85,61.89S431.18,413.37,423.86,493.42Z"/><path class="cls-4" d="M408.17,261.31c-32.79,25.41-84.68,74.81-84.68,74.81-11.88-16.7-23.08-56.64-28.47-78l.22-.08a162,162,0,0,1,57-8.63C375.28,250.27,393.23,254.89,408.17,261.31Z"/><path class="cls-6" d="M407.86,257.36c-12.38,15.07-38.2,31.18-64.5,26.74-20.49-3.46-30.16-16.86-34.64-27.19a162.37,162.37,0,0,1,53.54-7.46A158.23,158.23,0,0,1,407.86,257.36Z"/><path class="cls-7" d="M388.13,253.71c-37.22,25.56-67.72,4.48-67.72,4.48l3.6-14.37,3-12.15,6.38-25.5C347.77,173.88,378.26,190,378.26,190l4,25.53,3.9,25.16Z"/><path class="cls-8" d="M382.22,215.56c-11.07,14.22-27.07,28.63-40.73,26.49-6.73-1.06-11.32-5.14-14.45-10.38l6.38-25.5C347.77,173.88,378.26,190,378.26,190Z"/><path class="cls-6" d="M388.13,253.71c-37.22,25.56-67.72,4.48-67.72,4.48l3.6-14.37c6,5.35,14.83,9.68,27.34,9,17.59-1,28.35-6.57,34.77-12.09Z"/><path class="cls-3" d="M384.73,231.79l1.39,8.93s11.28,3,12.77,6.15S359.54,286,330.28,324.12c0,0,97.88-53.59,159.09-43.39C489.37,280.73,434.48,242.28,384.73,231.79Z"/><path class="cls-3" d="M326.47,232.88l-1.69,7.84s-10.74.43-13.7,5.63,12.81,61.42,19.2,76.68c0,0-54.16-61.44-100.57-54C229.71,269,285.32,239.5,326.47,232.88Z"/><path class="cls-9" d="M307.75,334.56s25.22,3.13,36.65,3.8c0,0,13.12,17.49,16.82,21.19,0,0,3.37,49.11-47.42,67.61,0,0-32.44-16.07-24.9-75.35Z"/><path class="cls-6" d="M315,415.79c-6.63-5.57-20.32-21.81-16.54-59.08l12.64-11.58c6.65.79,19,2.22,28,3,3.27,4.31,8.41,11,12.05,15.32C350.81,373,347,401.71,315,415.79Z"/><path class="cls-4" d="M262.33,1111c-5.67,11.21-12.54,18.74-19.85,23.55-27.33,18-60.73-2-60.2-9.42.56-7.8-3-86.72-1.61-135.75.29-10.15.8-19,1.61-25.7,4.71-39,23.54-36.33,23.54-36.33q1.37-.27,2.7-.45c42.42-5.72,64.65,60,65.42,118.19C274.28,1070.72,270.45,1095,262.33,1111Z"/><path class="cls-3" d="M280.29,1071.38c-3,52.26-21.32,117-21.32,117-16.82,52.47-37.67,117.72-37.67,117.72,11.43,10.09.67,20.86.67,20.86,8.75,47.09-8.07,92.83-8.07,92.83-1.85,1.85-41.17,8.15-70.13,12.56-13.19,2-24.23,3.63-28.6,4.26-14,2-28.42,6.73-54.65-3.37s-20.86-32.29-8.07-33,39.69-12.78,39.69-12.78c35.65-15.47,80.05-68.62,80.05-68.62s-4-191.65-4.41-267.27c-.11-17.61,0-28.92.37-30.07,1.12-3.35,7.27-18.94,12.52-32.15,4.21-10.59,7.84-19.65,7.84-19.65,23,23.49,41.42,40.4,55.58,52.41a327,327,0,0,0,29.85,22.95c4.41,2.91,6.56,4,6.56,4A209.2,209.2,0,0,1,280.29,1071.38Z"/><path class="cls-9" d="M280.29,1071.38c-35.83-18.19-87.92-70.73-87.92-70.73-8.29,12.28-17.27,32.52-24.59,50.92-.11-17.61,0-28.92.37-30.07,2-6,20.36-51.8,20.36-51.8,63.06,64.48,92,79.38,92,79.38A209.2,209.2,0,0,1,280.29,1071.38Z"/><path class="cls-5" d="M280.29,1071.38c-3,52.26-21.32,117-21.32,117-16.82,52.47-37.67,117.72-37.67,117.72,11.43,10.09.67,20.86.67,20.86,8.75,47.09-8.07,92.83-8.07,92.83-1.85,1.85-41.17,8.15-70.13,12.56,66.21-41.79,50.62-108.09,50.62-108.09s31-64.35,48.09-189.7q1.61-11.74,3-24.22c3.84-33.54,2.64-62.9-1.42-88.19-7-43.88-22.68-75.47-35.57-95.24,42.42-5.72,64.65,60,65.42,118.19,4.41,2.91,6.56,4,6.56,4A209.2,209.2,0,0,1,280.29,1071.38Z"/><path class="cls-4" d="M328.93,743c-6.05,10.76-55.83,158.09-69.29,190.38-7.24,17.39-23.66,26.39-38.85,25.42-13-.83-25.11-9-29.77-25.42-10.09-35.66,13.46-309.45,13.46-309.45,12.11-33,50.19-33.64,50.19-33.64s5.11-.45,13.09-.39c24.43.18,75.74,5.08,89.43,42.1C375.35,681.11,335,732.23,328.93,743Z"/><path class="cls-5" d="M328.93,743c-6.05,10.76-55.83,158.09-69.29,190.38-7.24,17.39-23.66,26.39-38.85,25.42,41.28-25.09,62.84-148,68.09-221.18C293.27,676.49,276,615,267.76,589.9c24.43.18,75.74,5.08,89.43,42.1C375.35,681.11,335,732.23,328.93,743Z"/><path class="cls-4" d="M438,950.59c-8.63,9.27-20.07,11.61-31.28,8.28-24.21-7.17-108-211.79-116-287.52s49.4-81.46,49.4-81.46A192.17,192.17,0,0,1,364.71,583c99.71-20.22,82.18,89.73,80.31,120.69-2,33.3,3,126.14,7.06,184.66C454.25,919.77,448,939.84,438,950.59Z"/><path class="cls-5" d="M438,950.59c3.57-53.78-23.21-144-23.21-144s17.16-40.37,0-121.09C404.17,635.8,381,601.79,364.71,583c99.71-20.22,82.18,89.73,80.31,120.69-2,33.3,3,126.14,7.06,184.66C454.25,919.77,448,939.84,438,950.59Z"/><path class="cls-4" d="M512,1111.94c-18.24,22.3-45.56,28.27-52.84,18.57-9.74-13-25.35-69.06-40.06-116.24-3.58-11.47-7.1-22.41-10.47-32.09-17.24-49.44,5.12-48.43,5.12-48.43a37.6,37.6,0,0,1,5.67-2.85c33.06-13.41,76.17,23.52,97.29,75.1a173.39,173.39,0,0,1,11.07,39.75C532.19,1075.14,524.09,1097.14,512,1111.94Z"/><path class="cls-3" d="M588.3,1406c-8.56,25-38.8,45.9-62.56,59.24-9.85,5.53-18.6,9.74-24.22,12.41-19.17,9.08-43.39,2-50.45-4s-4-20.18-4-20.18c73.67-46.42,63.58-138.24,63.58-138.24-1.67-6.66-67.23-189.18-90.1-252.82l-7.78-21.63c.36-7.83,3.08-17.43,6.35-26.44a260.11,260.11,0,0,1,12.82-29.06,139.22,139.22,0,0,1,34.31,2.44A178.47,178.47,0,0,1,516.69,1006a128.39,128.39,0,0,1,12.29,7.46s1.9,6.92,4.74,21.66c3.3,17.09,7.86,44.73,12.2,84.29C554,1193.07,553,1293,553,1293c17.15,7.07,6,22.2,6,22.2C583.25,1346.44,588.3,1406,588.3,1406Z"/><path class="cls-9" d="M533.72,1035.12c-42.92-22.61-90.72-27.71-90.72-27.71-8.65,14.56-16.49,35.9-22.49,54.93l-7.78-21.63c1-21.19,19.17-55.5,19.17-55.5,53.48-3,97.08,28.25,97.08,28.25S530.88,1020.38,533.72,1035.12Z"/><path class="cls-5" d="M588.3,1406c-8.56,25-38.8,45.9-62.56,59.24,18-21,32.36-52,30.27-74.37-3-32.29-22.29-70.63-22.29-70.63s8.38-74.72-21.74-208.27q-2.09-9.2-4.4-18.76c-11-45.38-26-79.74-41.37-105.53-16.63-27.9-33.72-45.78-46.81-56.75,33.06-13.41,76.17,23.52,97.29,75.1a128.39,128.39,0,0,1,12.29,7.46s1.9,6.92,4.74,21.66c3.3,17.09,7.86,44.73,12.2,84.29C554,1193.07,553,1293,553,1293c17.15,7.07,6,22.2,6,22.2C583.25,1346.44,588.3,1406,588.3,1406Z"/><path class="cls-3" d="M439.26,608.45c-10.09,18.17-78.71,50.46-132.53,51.8s-102.25-36.32-102.25-36.32c.1-8.13.41-18.07.86-29.08,18,12.6,49.52,30.59,85.47,32.89,53.94,3.45,107.44-11.78,139.39-41.69C434.61,601.3,439.26,608.45,439.26,608.45Z"/><ellipse class="cls-9" cx="295.87" cy="660.63" rx="49.4" ry="30.72"/><ellipse class="cls-3" cx="294.1" cy="662.25" rx="34.21" ry="21.27"/><path class="cls-6" d="M581.2,498.36c-1.68,12.88-15.44,22.76-31.59,20.63-9.71-1.27-20.28-6.88-29.63-18.78-24.89-31.68-57.18-105.68-80.72-136.62-15.64-20.56-14.46-54.07-1.53-71.24,6.55-8.68,16.09-13.18,28-9.72,0,0,16.59-2.67,48.21,51.93S583.89,477.73,581.2,498.36Z"/><path class="cls-5" d="M549.61,519c-9.71-1.27-20.28-6.88-29.63-18.78-24.89-31.68-57.18-105.68-80.72-136.62-15.64-20.56-14.46-54.07-1.53-71.24-3.31,14-4.26,39.42,17.67,70.56,33.64,47.77,57.18,85.44,70,116.38C532.41,496.37,541.52,510.16,549.61,519Z"/><path class="cls-6" d="M433.2,531.77s23.55-19.72,41-34.41,55.16-30.18,82.07-21.43,32.29,19.43,8.74,43.35-74.31,53.36-110.32,61.25S403,557.1,433.2,531.77Z"/><path class="cls-1" d="M476,484.68s22.43,50.22,70.86,61.89c0,0-25.11,22.42-78.48,37.22s-101,14.8-106.56,16.59-25.29,5.83-31.12,5.38-29.6,0-35.88-4,0-8.07,0-8.07-10.32,2.34-11.66-3.76,4.93-5.44,3.14-9.37-9.42-4.81-8.52-9.3,8.52-6.73,4.48-10.31-6.6-1.35-7.11-8.08,9-4.89,16.14-7.6,10.7-7.64,12.95-7.2,9,9.42,9,9.42l4-2.22a28.55,28.55,0,0,0,5.82-7.64c2.25-4.49,11.49-4.94,17-3.14s13.31,15.69,31.14,19.28C371.19,553.74,425.8,540.73,476,484.68Z"/><path class="cls-10" d="M317.06,57.6s-34.82,22-27.36,65.25c0,0,19.4-38.8,42.78-45.26C332.48,77.59,335.46,62.49,317.06,57.6Z"/><path class="cls-7" d="M407.09,181.55c-3.53,3.32-7.47,6.69-11.72,10-23.27,18-55.92,33.44-81.84,22.28a43.3,43.3,0,0,1-7.91-4.41c-29.72-20.75-33.49-98.3,6.91-131.72a65,65,0,0,1,7-5.07c47.75-29.84,79.09-6,79.09-6,18.63,12.09,26.94,35.41,27.37,58.51C426.43,147.68,419.36,170,407.09,181.55Z"/><path class="cls-11" d="M401.12,195.47a15.09,15.09,0,0,1-5.75-3.94,17.09,17.09,0,0,1-3.84-6.58,25.54,25.54,0,0,1-.86-10.86s20.9-6.47,18.41-26.86-27.36-13.43-30.84,14.42l-10.87-8.45s13.36-14.43,6.89-26.86-24.38-2-9.95-32.83c0,0-29.35,3-50.73-14.93l-1.05-.9c-20.33-17.94-19.72-45.51-12.38-54.31,0,0,6,12.93,19.4,12.43,0,0-10.95-22.88,7.95-34.32,0,0-4.48,24.87,40.79,31.34S444.4,60.68,421.51,88a17.55,17.55,0,0,1,6.66,2.19c4.32,2.4,9.39,7.38,10.76,17.71C441.41,126.83,430,173.09,401.12,195.47Z"/><path class="cls-5" d="M401.12,195.47a15.09,15.09,0,0,1-5.75-3.94c-23.27,18-55.92,33.44-81.84,22.28,21.9-2.07,54.89-10.63,78-28.86a77.79,77.79,0,0,0,16.06-16.83,119.61,119.61,0,0,0,18.42-43c4.31-20.19,2.16-34.94,2.16-34.94,4.32,2.4,9.39,7.38,10.76,17.71C441.41,126.83,430,173.09,401.12,195.47Z"/><path class="cls-12" d="M606.47,388.34c-125.82-26.44-191.26-65-191.26-65s-42.69,62.82-145.15,140.5c0,0,54.85,266.84,243.23,296.5C670.93,653,606.47,388.34,606.47,388.34Z"/><path class="cls-13" d="M509.21,742.14c-37.75-7-72.59-25-103.62-53.55-26.43-24.29-50.29-56.29-70.92-95.09-27-50.75-41.38-100.18-46.86-121.6C362.48,414.05,404,365.36,420,344.81c23.23,11.75,81.61,38,173.85,58.39,4.19,21.7,12.3,72.55,9.59,130-2.06,43.89-10,83-23.47,116.27C564.13,688.5,540.33,719.65,509.21,742.14Z"/><path class="cls-14" d="M415.21,323.35s-42.69,62.82-145.15,140.5c0,0,54.85,266.84,243.23,296.5Z"/><path class="cls-15" d="M511.63,529.47c-4.47,1-9-2.32-10.18-7.43l-11.53-51.37c-5.6-24.92-27.93-41.21-49.79-36.3s-35.1,29.18-29.5,54.1l11.53,51.37c1.14,5.11-1.56,10.06-6,11.07s-9-2.32-10.18-7.43l-11.53-51.37C386.52,457,405.17,422.79,436,415.88s62.28,16,70.16,51.15l11.53,51.37C518.82,523.51,516.11,528.46,511.63,529.47Z"/><rect class="cls-9" x="393.34" y="511.73" width="160.69" height="144.25" rx="43.5" transform="translate(-116.37 117.91) rotate(-12.65)"/><path class="cls-16" d="M502.77,618.34l-25.61-53.75A19.05,19.05,0,0,0,481.72,547c-2.24-10-11.13-16.45-19.87-14.49s-14,11.63-11.77,21.59a19.08,19.08,0,0,0,11.27,13.79l.77,59.53Z"/><path class="cls-6" d="M116.36,127.14C114,140.31,109,155.82,101.21,172a236.45,236.45,0,0,1-25.92,42.09S37.83,259,6.56,232.88A17.36,17.36,0,0,1,1.2,225c-7.36-21.58,20.41-63.91,49.61-95.75C68.15,110.38,86,95.18,97.29,90.22,114.71,82.58,121.26,99.8,116.36,127.14Z"/><path class="cls-3" d="M264.46,49.41c-4.67,3.16-8.17,0-8.17,0a7.93,7.93,0,0,1-.41,3.8,6,6,0,0,1-3.92,3.7,8,8,0,0,1-8.53-2l-.14-.15s0,.07.05.2c.2,1.05,1,6-3.05,7.8a8.52,8.52,0,0,1-7.44-.17,5.76,5.76,0,0,1-.56-.33s-3.5,6.5-8.5,7-16-9.5-16-9.5c-11.5,8.5-18.5,4-18.5,4-27.5,28.5-71.35,107-71.35,107A86.56,86.56,0,0,1,101.21,172a65.52,65.52,0,0,1-15.15-2.14,66.31,66.31,0,0,1-19.27-8.65c-11-7.12-14.74-21.46-16-32a77.77,77.77,0,0,1-.52-12.55s26.22-23.72,83-61.33C189.78,18,217.46,5.24,230.12,1.48s13.17-.07,18,7.76S269.12,46.24,264.46,49.41Z"/><path class="cls-2" d="M253,51.07s7.66,4.34,6.66,10-25,7.34-28,9S227.29,59.41,253,51.07Z"/><path class="cls-5" d="M217.79,51.07s-10-.83-10,8.67c-11.5,8.5-18.5,4-18.5,4-27.5,28.5-71.35,107-71.35,107A86.56,86.56,0,0,1,101.21,172a236.45,236.45,0,0,1-25.92,42.09S37.83,259,6.56,232.88A17.36,17.36,0,0,1,1.2,225c9.37.21,23.45-2.55,42.09-14.53,18.18-11.69,31.05-25.35,42.77-40.62,10.07-13.15,19.29-27.47,30.3-42.75q3.33-4.64,6.93-9.4c28-37,56-64.5,80.5-73,0,0,6.5-1,10-6.5A21.84,21.84,0,0,0,217.79,51.07Z"/></svg>