<svg id="Lag_1" data-name="Lag 1" xmlns="http://www.w3.org/2000/svg" viewBox="0 0 145.56 165.1"><defs><style>.cls-1{fill:#60605d;}.cls-2{fill:#f48787;}.cls-3{fill:#db6363;}.cls-4{fill:#fff;}</style></defs><path class="cls-1" d="M0,37.65V76.37a81.61,81.61,0,0,0,36.34,67.91L72.73,165v.07l0,0,0,0V165l36.39-20.75a81.63,81.63,0,0,0,36.34-67.91V37.65L74.48,0Z"/><path class="cls-2" d="M20.5,50.29V78.11a58.62,58.62,0,0,0,26.1,48.78L72.74,141.8v0l0,0,0,0v0L99,126.89a58.62,58.62,0,0,0,26.1-48.78V50.29L74,23.25Z"/><path class="cls-3" d="M115.11,45V69.08a63.73,63.73,0,0,1-28.38,53L62.47,136l10.27,5.85v0l0,0,0,0v0L99,126.89a58.62,58.62,0,0,0,26.1-48.78V50.29Z"/><polygon class="cls-4" points="100.7 65.72 88.2 53.22 73.62 67.8 59.04 53.22 46.54 65.72 61.12 80.3 46.54 94.88 59.04 107.38 73.62 92.8 88.2 107.38 100.7 94.88 86.12 80.3 100.7 65.72"/></svg>